<svg width="62" height="76" viewBox="0 0 62 76" fill="none" xmlns="http://www.w3.org/2000/svg">
<rect y="0.652344" width="62" height="74.3693" rx="4" fill="white" fill-opacity="0.1"/>
<rect y="0.652344" width="62" height="74.3693" rx="4" fill="url(#paint0_linear_2093_12484)" fill-opacity="0.07"/>
<rect x="0.3" y="0.952344" width="61.4" height="73.7693" rx="3.7" stroke="url(#paint1_linear_2093_12484)" stroke-opacity="0.4" stroke-width="0.6"/>
<rect x="0.3" y="0.952344" width="61.4" height="73.7693" rx="3.7" stroke="url(#paint2_linear_2093_12484)" stroke-opacity="0.4" stroke-width="0.6"/>
<rect x="6" y="6.65234" width="50" height="38.3693" rx="4" fill="#F9C959"/>
<path d="M6.42898 57.0216V56.0102L8.55114 54.1523C8.71023 54.0083 8.84564 53.8767 8.95739 53.7574C9.06913 53.6362 9.15436 53.515 9.21307 53.3938C9.27178 53.2707 9.30114 53.1371 9.30114 52.9932C9.30114 52.8322 9.2661 52.6949 9.19602 52.5813C9.12595 52.4657 9.02936 52.3767 8.90625 52.3142C8.78314 52.2517 8.64205 52.2205 8.48295 52.2205C8.32197 52.2205 8.18087 52.2536 8.05966 52.3199C7.93845 52.3843 7.84375 52.478 7.77557 52.6012C7.70928 52.7243 7.67614 52.8739 7.67614 53.05H6.34375C6.34375 52.6542 6.43277 52.3123 6.6108 52.0244C6.78883 51.7366 7.03883 51.515 7.3608 51.3597C7.68466 51.2025 8.06061 51.1239 8.48864 51.1239C8.92992 51.1239 9.31345 51.1977 9.6392 51.3455C9.96496 51.4932 10.2169 51.6996 10.3949 51.9648C10.5748 52.228 10.6648 52.5339 10.6648 52.8824C10.6648 53.104 10.6203 53.3237 10.5312 53.5415C10.4422 53.7593 10.2822 53.9998 10.0511 54.2631C9.82197 54.5263 9.49621 54.8417 9.07386 55.2091L8.37784 55.8512V55.8881H10.7358V57.0216H6.42898ZM12.3232 57.104C12.1186 57.104 11.9434 57.032 11.7976 56.8881C11.6536 56.7441 11.5826 56.5699 11.5845 56.3654C11.5826 56.1646 11.6536 55.9932 11.7976 55.8512C11.9434 55.7072 12.1186 55.6352 12.3232 55.6352C12.5163 55.6352 12.6868 55.7072 12.8345 55.8512C12.9841 55.9932 13.0599 56.1646 13.0618 56.3654C13.0599 56.5017 13.0239 56.6258 12.9538 56.7375C12.8857 56.8493 12.7957 56.9383 12.6839 57.0046C12.5741 57.0708 12.4538 57.104 12.3232 57.104ZM16.1719 57.1012C15.7476 57.1012 15.3707 57.0244 15.0412 56.871C14.7116 56.7176 14.4512 56.5065 14.2599 56.2375C14.0705 55.9686 13.9721 55.6599 13.9645 55.3114H15.3281C15.3395 55.5254 15.4266 55.6977 15.5895 55.8284C15.7524 55.9572 15.9465 56.0216 16.1719 56.0216C16.348 56.0216 16.5043 55.9828 16.6406 55.9051C16.777 55.8275 16.884 55.7186 16.9616 55.5784C17.0393 55.4364 17.0772 55.2735 17.0753 55.0898C17.0772 54.9023 17.0384 54.7385 16.9588 54.5983C16.8812 54.4582 16.7732 54.3493 16.6349 54.2716C16.4986 54.1921 16.3414 54.1523 16.1634 54.1523C15.9948 54.1504 15.8348 54.1873 15.6832 54.2631C15.5336 54.3388 15.42 54.4421 15.3423 54.5727L14.1009 54.3398L14.3537 51.2034H18.0866V52.3369H15.5099L15.3764 53.7091H15.4105C15.5071 53.5481 15.6624 53.4155 15.8764 53.3114C16.0923 53.2053 16.3376 53.1523 16.6122 53.1523C16.9607 53.1523 17.2713 53.2337 17.544 53.3966C17.8187 53.5576 18.0346 53.7811 18.1918 54.0671C18.3509 54.353 18.4304 54.6807 18.4304 55.05C18.4304 55.4496 18.3357 55.8038 18.1463 56.1125C17.9588 56.4212 17.6955 56.6637 17.3565 56.8398C17.0194 57.014 16.6245 57.1012 16.1719 57.1012ZM21.4751 57.1012C21.0225 57.1012 20.6181 57.0292 20.2621 56.8852C19.9079 56.7394 19.6295 56.5424 19.4268 56.2943C19.2261 56.0443 19.1257 55.7621 19.1257 55.4477C19.1257 55.2072 19.1835 54.9866 19.299 54.7858C19.4145 54.5851 19.5708 54.4184 19.7678 54.2858C19.9666 54.1513 20.1882 54.0652 20.4325 54.0273V53.9818C20.1125 53.9231 19.8501 53.7744 19.6456 53.5358C19.4429 53.2972 19.3416 53.0178 19.3416 52.6977C19.3416 52.3947 19.4335 52.1248 19.6172 51.8881C19.8028 51.6513 20.0556 51.4648 20.3757 51.3284C20.6977 51.1921 21.0642 51.1239 21.4751 51.1239C21.8861 51.1239 22.2517 51.1921 22.5717 51.3284C22.8937 51.4648 23.1465 51.6513 23.3303 51.8881C23.5159 52.1248 23.6087 52.3947 23.6087 52.6977C23.6087 53.0197 23.5054 53.3 23.299 53.5387C23.0945 53.7754 22.834 53.9231 22.5178 53.9818V54.0273C22.7602 54.0652 22.9799 54.1513 23.1768 54.2858C23.3757 54.4184 23.5329 54.5851 23.6484 54.7858C23.7659 54.9866 23.8246 55.2072 23.8246 55.4477C23.8246 55.7621 23.7232 56.0443 23.5206 56.2943C23.3179 56.5424 23.0395 56.7394 22.6854 56.8852C22.3331 57.0292 21.9297 57.1012 21.4751 57.1012ZM21.4751 56.104C21.6475 56.104 21.799 56.0718 21.9297 56.0074C22.0604 55.9411 22.1626 55.8493 22.2365 55.7318C22.3123 55.6144 22.3501 55.4818 22.3501 55.3341C22.3501 55.1826 22.3123 55.0481 22.2365 54.9307C22.1607 54.8133 22.0566 54.7214 21.924 54.6551C21.7933 54.5869 21.6437 54.5529 21.4751 54.5529C21.3085 54.5529 21.1589 54.5869 21.0263 54.6551C20.8937 54.7214 20.7895 54.8133 20.7138 54.9307C20.638 55.0481 20.6001 55.1826 20.6001 55.3341C20.6001 55.4818 20.6371 55.6144 20.7109 55.7318C20.7867 55.8474 20.8899 55.9383 21.0206 56.0046C21.1532 56.0708 21.3047 56.104 21.4751 56.104ZM21.4751 53.5614C21.6229 53.5614 21.7536 53.5311 21.8672 53.4705C21.9827 53.4099 22.0727 53.3256 22.1371 53.2176C22.2034 53.1097 22.2365 52.9875 22.2365 52.8512C22.2365 52.7148 22.2034 52.5945 22.1371 52.4904C22.0727 52.3862 21.9837 52.3048 21.87 52.246C21.7564 52.1854 21.6248 52.1551 21.4751 52.1551C21.3274 52.1551 21.1958 52.1854 21.0803 52.246C20.9647 52.3048 20.8748 52.3862 20.8104 52.4904C20.746 52.5945 20.7138 52.7148 20.7138 52.8512C20.7138 52.9875 20.746 53.1097 20.8104 53.2176C20.8767 53.3237 20.9676 53.408 21.0831 53.4705C21.1986 53.5311 21.3293 53.5614 21.4751 53.5614Z" fill="white"/>
<path d="M8.78409 69.0216L9.73864 63.2034H10.3068L9.35227 69.0216H8.78409ZM6.13636 67.408L6.22727 66.8398H10.5682L10.4773 67.408H6.13636ZM6.73864 69.0216L7.69318 63.2034H8.26136L7.30682 69.0216H6.73864ZM6.47727 65.3852L6.56818 64.8171H10.9091L10.8182 65.3852H6.47727ZM13.5014 63.1239C13.7401 63.1258 13.9787 63.1712 14.2173 63.2602C14.456 63.3493 14.6738 63.497 14.8707 63.7034C15.0677 63.908 15.2259 64.1873 15.3452 64.5415C15.4645 64.8957 15.5241 65.3398 15.5241 65.8739C15.5241 66.3909 15.4749 66.8502 15.3764 67.2517C15.2798 67.6513 15.1397 67.9885 14.956 68.2631C14.7741 68.5377 14.5526 68.746 14.2912 68.8881C14.0317 69.0301 13.7382 69.1012 13.4105 69.1012C13.0848 69.1012 12.794 69.0368 12.5384 68.908C12.2846 68.7773 12.0762 68.5964 11.9134 68.3654C11.7524 68.1324 11.6491 67.8625 11.6037 67.5557H12.2969C12.3594 67.8227 12.4834 68.0434 12.669 68.2176C12.8565 68.39 13.1037 68.4762 13.4105 68.4762C13.8594 68.4762 14.2135 68.2801 14.473 67.8881C14.7344 67.496 14.8651 66.9421 14.8651 66.2262H14.8196C14.7135 66.3852 14.5876 66.5226 14.4418 66.6381C14.2959 66.7536 14.134 66.8426 13.956 66.9051C13.7779 66.9676 13.5885 66.9989 13.3878 66.9989C13.0545 66.9989 12.7486 66.9165 12.4702 66.7517C12.1937 66.5851 11.9721 66.3568 11.8054 66.0671C11.6406 65.7754 11.5582 65.4421 11.5582 65.0671C11.5582 64.711 11.6378 64.3852 11.7969 64.0898C11.9579 63.7924 12.1832 63.5557 12.473 63.3796C12.7647 63.2034 13.1075 63.1182 13.5014 63.1239ZM13.5014 63.7489C13.2628 63.7489 13.0478 63.8085 12.8565 63.9279C12.6671 64.0453 12.5166 64.2044 12.4048 64.4051C12.295 64.604 12.2401 64.8246 12.2401 65.0671C12.2401 65.3095 12.2931 65.5301 12.3991 65.729C12.5071 65.926 12.6539 66.0832 12.8395 66.2006C13.027 66.3161 13.2401 66.3739 13.4787 66.3739C13.6586 66.3739 13.8262 66.3388 13.9815 66.2688C14.1368 66.1968 14.2723 66.0993 14.3878 65.9762C14.5052 65.8512 14.5971 65.7101 14.6634 65.5529C14.7296 65.3938 14.7628 65.228 14.7628 65.0557C14.7628 64.8284 14.7079 64.6154 14.598 64.4165C14.4901 64.2176 14.3404 64.0566 14.1491 63.9335C13.9598 63.8104 13.7438 63.7489 13.5014 63.7489ZM18.505 69.1012C18.1148 69.1012 17.7701 69.032 17.4709 68.8938C17.1735 68.7536 16.9415 68.5614 16.7749 68.3171C16.6082 68.0708 16.5258 67.7905 16.5277 67.4762C16.5258 67.2299 16.5741 67.0027 16.6726 66.7943C16.7711 66.5841 16.9055 66.4089 17.076 66.2688C17.2483 66.1267 17.4406 66.0368 17.6527 65.9989V65.9648C17.3743 65.8928 17.1527 65.7366 16.9879 65.496C16.8232 65.2536 16.7417 64.978 16.7436 64.6693C16.7417 64.3739 16.8165 64.1097 16.968 63.8767C17.1196 63.6438 17.3279 63.4601 17.593 63.3256C17.8601 63.1911 18.1641 63.1239 18.505 63.1239C18.8421 63.1239 19.1432 63.1911 19.4084 63.3256C19.6735 63.4601 19.8819 63.6438 20.0334 63.8767C20.1868 64.1097 20.2644 64.3739 20.2663 64.6693C20.2644 64.978 20.1802 65.2536 20.0135 65.496C19.8487 65.7366 19.63 65.8928 19.3572 65.9648V65.9989C19.5675 66.0368 19.7569 66.1267 19.9254 66.2688C20.094 66.4089 20.2285 66.5841 20.3288 66.7943C20.4292 67.0027 20.4804 67.2299 20.4822 67.4762C20.4804 67.7905 20.3951 68.0708 20.2266 68.3171C20.0599 68.5614 19.8279 68.7536 19.5305 68.8938C19.2351 69.032 18.8932 69.1012 18.505 69.1012ZM18.505 68.4762C18.7682 68.4762 18.9955 68.4335 19.1868 68.3483C19.3781 68.2631 19.5258 68.1428 19.63 67.9875C19.7341 67.8322 19.7872 67.6504 19.7891 67.4421C19.7872 67.2224 19.7304 67.0282 19.6186 66.8597C19.5069 66.6911 19.3544 66.5585 19.1612 66.4619C18.9699 66.3654 18.7512 66.3171 18.505 66.3171C18.2569 66.3171 18.0353 66.3654 17.8402 66.4619C17.647 66.5585 17.4946 66.6911 17.3828 66.8597C17.273 67.0282 17.219 67.2224 17.2209 67.4421C17.219 67.6504 17.2692 67.8322 17.3714 67.9875C17.4756 68.1428 17.6243 68.2631 17.8175 68.3483C18.0107 68.4335 18.2398 68.4762 18.505 68.4762ZM18.505 65.7148C18.7133 65.7148 18.898 65.6731 19.0589 65.5898C19.2218 65.5065 19.3497 65.39 19.4425 65.2404C19.5353 65.0907 19.5826 64.9155 19.5845 64.7148C19.5826 64.5178 19.5362 64.3464 19.4453 64.2006C19.3544 64.0529 19.2285 63.9392 19.0675 63.8597C18.9065 63.7782 18.719 63.7375 18.505 63.7375C18.2872 63.7375 18.0968 63.7782 17.9339 63.8597C17.7711 63.9392 17.6451 64.0529 17.5561 64.2006C17.4671 64.3464 17.4235 64.5178 17.4254 64.7148C17.4235 64.9155 17.468 65.0907 17.5589 65.2404C17.6518 65.39 17.7796 65.5065 17.9425 65.5898C18.1054 65.6731 18.2929 65.7148 18.505 65.7148ZM21.9119 69.0216H21.1733L23.3097 63.2034H24.0369L26.1733 69.0216H25.4347L23.696 64.1239H23.6506L21.9119 69.0216ZM22.1847 66.7489H25.1619V67.3739H22.1847V66.7489ZM26.9773 69.0216V68.5102L28.8977 66.408C29.1231 66.1618 29.3087 65.9477 29.4545 65.7659C29.6004 65.5822 29.7083 65.4099 29.7784 65.2489C29.8504 65.086 29.8864 64.9155 29.8864 64.7375C29.8864 64.533 29.8371 64.3559 29.7386 64.2063C29.642 64.0566 29.5095 63.9411 29.3409 63.8597C29.1723 63.7782 28.983 63.7375 28.7727 63.7375C28.5492 63.7375 28.3542 63.7839 28.1875 63.8767C28.0227 63.9676 27.8949 64.0955 27.804 64.2602C27.715 64.425 27.6705 64.6182 27.6705 64.8398H27C27 64.4989 27.0786 64.1996 27.2358 63.9421C27.393 63.6845 27.607 63.4837 27.8778 63.3398C28.1506 63.1958 28.4564 63.1239 28.7955 63.1239C29.1364 63.1239 29.4384 63.1958 29.7017 63.3398C29.965 63.4837 30.1714 63.6779 30.321 63.9222C30.4706 64.1665 30.5455 64.4383 30.5455 64.7375C30.5455 64.9515 30.5066 65.1608 30.429 65.3654C30.3532 65.568 30.2206 65.7943 30.0312 66.0443C29.8438 66.2924 29.5833 66.5955 29.25 66.9534L27.9432 68.3512V68.3966H30.6477V69.0216H26.9773ZM31.9233 69.0216V63.2034H33.9574C34.3627 63.2034 34.697 63.2735 34.9602 63.4137C35.2235 63.5519 35.4195 63.7385 35.5483 63.9733C35.6771 64.2063 35.7415 64.4648 35.7415 64.7489C35.7415 64.9989 35.697 65.2053 35.608 65.3682C35.5208 65.5311 35.4053 65.6599 35.2614 65.7546C35.1193 65.8493 34.965 65.9193 34.7983 65.9648V66.0216C34.9763 66.033 35.1553 66.0955 35.3352 66.2091C35.5152 66.3227 35.6657 66.4856 35.7869 66.6977C35.9081 66.9099 35.9688 67.1693 35.9688 67.4762C35.9688 67.7678 35.9025 68.0301 35.7699 68.2631C35.6373 68.496 35.428 68.6807 35.142 68.8171C34.8561 68.9534 34.4839 69.0216 34.0256 69.0216H31.9233ZM32.6278 68.3966H34.0256C34.4858 68.3966 34.8125 68.3076 35.0057 68.1296C35.2008 67.9496 35.2983 67.7318 35.2983 67.4762C35.2983 67.2792 35.2481 67.0974 35.1477 66.9307C35.0473 66.7621 34.9044 66.6277 34.7188 66.5273C34.5331 66.425 34.3134 66.3739 34.0597 66.3739H32.6278V68.3966ZM32.6278 65.7602H33.9347C34.1468 65.7602 34.3381 65.7186 34.5085 65.6352C34.6809 65.5519 34.8172 65.4345 34.9176 65.283C35.0199 65.1315 35.071 64.9534 35.071 64.7489C35.071 64.4932 34.982 64.2763 34.804 64.0983C34.6259 63.9184 34.3438 63.8284 33.9574 63.8284H32.6278V65.7602ZM38.9901 69.1012C38.6151 69.1012 38.2808 69.0368 37.9872 68.908C37.6955 68.7792 37.4635 68.6002 37.2912 68.371C37.1207 68.14 37.0279 67.872 37.0128 67.5671H37.7287C37.7438 67.7546 37.8082 67.9165 37.9219 68.0529C38.0355 68.1873 38.1842 68.2915 38.3679 68.3654C38.5516 68.4392 38.7552 68.4762 38.9787 68.4762C39.2287 68.4762 39.4503 68.4326 39.6435 68.3455C39.8366 68.2583 39.9882 68.1371 40.098 67.9818C40.2079 67.8265 40.2628 67.6466 40.2628 67.4421C40.2628 67.228 40.2098 67.0396 40.1037 66.8767C39.9976 66.7119 39.8423 66.5832 39.6378 66.4904C39.4332 66.3976 39.1832 66.3512 38.8878 66.3512H38.4219V65.7262H38.8878C39.1188 65.7262 39.3215 65.6845 39.4957 65.6012C39.6719 65.5178 39.8092 65.4004 39.9077 65.2489C40.008 65.0974 40.0582 64.9193 40.0582 64.7148C40.0582 64.5178 40.0147 64.3464 39.9276 64.2006C39.8404 64.0548 39.7173 63.9411 39.5582 63.8597C39.401 63.7782 39.2154 63.7375 39.0014 63.7375C38.8007 63.7375 38.6113 63.7744 38.4332 63.8483C38.2571 63.9203 38.1132 64.0254 38.0014 64.1637C37.8897 64.3 37.8291 64.4648 37.8196 64.658H37.1378C37.1491 64.353 37.241 64.086 37.4134 63.8568C37.5857 63.6258 37.8111 63.4458 38.0895 63.3171C38.3698 63.1883 38.6776 63.1239 39.0128 63.1239C39.3726 63.1239 39.6813 63.1968 39.9389 63.3426C40.1965 63.4866 40.3944 63.6769 40.5327 63.9137C40.6709 64.1504 40.7401 64.4061 40.7401 64.6807C40.7401 65.0083 40.6539 65.2877 40.4815 65.5188C40.3111 65.7498 40.0791 65.9099 39.7855 65.9989V66.0443C40.1529 66.1049 40.4399 66.2612 40.6463 66.5131C40.8527 66.7631 40.956 67.0727 40.956 67.4421C40.956 67.7583 40.8698 68.0424 40.6974 68.2943C40.527 68.5443 40.294 68.7413 39.9986 68.8852C39.7031 69.0292 39.367 69.1012 38.9901 69.1012Z" fill="white"/>
<defs>
<linearGradient id="paint0_linear_2093_12484" x1="56.5637" y1="0.652353" x2="33.4807" y2="14.9584" gradientUnits="userSpaceOnUse">
<stop stop-color="#4A44D7"/>
<stop offset="1" stop-color="#F98DDA"/>
</linearGradient>
<linearGradient id="paint1_linear_2093_12484" x1="1.70361" y1="30.2409" x2="28.8352" y2="-0.621914" gradientUnits="userSpaceOnUse">
<stop stop-color="white" stop-opacity="0"/>
<stop offset="1" stop-color="white"/>
</linearGradient>
<linearGradient id="paint2_linear_2093_12484" x1="17.8459" y1="73.0503" x2="34.6617" y2="43.0695" gradientUnits="userSpaceOnUse">
<stop stop-color="white"/>
<stop offset="1" stop-color="white" stop-opacity="0"/>
</linearGradient>
</defs>
</svg>
