<svg width="52" height="44" viewBox="0 0 52 44" fill="none" xmlns="http://www.w3.org/2000/svg">
<g filter="url(#filter0_b_2093_12492)">
<rect width="52" height="44" rx="4" fill="white" fill-opacity="0.1"/>
<rect width="52" height="44" rx="4" fill="url(#paint0_linear_2093_12492)" fill-opacity="0.07"/>
<rect x="0.3" y="0.3" width="51.4" height="43.4" rx="3.7" stroke="url(#paint1_linear_2093_12492)" stroke-opacity="0.4" stroke-width="0.6"/>
<rect x="0.3" y="0.3" width="51.4" height="43.4" rx="3.7" stroke="url(#paint2_linear_2093_12492)" stroke-opacity="0.4" stroke-width="0.6"/>
<g clip-path="url(#clip0_2093_12492)">
<path d="M31.0257 25.8475L34.5948 29.4159L33.4157 30.595L29.8473 27.0259C28.5196 28.0902 26.8682 28.6691 25.1665 28.6667C21.0265 28.6667 17.6665 25.3067 17.6665 21.1667C17.6665 17.0267 21.0265 13.6667 25.1665 13.6667C29.3065 13.6667 32.6665 17.0267 32.6665 21.1667C32.6689 22.8684 32.09 24.5198 31.0257 25.8475ZM29.354 25.2292C30.4116 24.1416 31.0022 22.6837 30.9998 21.1667C30.9998 17.9434 28.389 15.3334 25.1665 15.3334C21.9432 15.3334 19.3332 17.9434 19.3332 21.1667C19.3332 24.3892 21.9432 27 25.1665 27C26.6835 27.0024 28.1414 26.4118 29.229 25.3542L29.354 25.2292V25.2292Z" fill="white"/>
</g>
</g>
<defs>
<filter id="filter0_b_2093_12492" x="-68" y="-68" width="188" height="180" filterUnits="userSpaceOnUse" color-interpolation-filters="sRGB">
<feFlood flood-opacity="0" result="BackgroundImageFix"/>
<feGaussianBlur in="BackgroundImageFix" stdDeviation="34"/>
<feComposite in2="SourceAlpha" operator="in" result="effect1_backgroundBlur_2093_12492"/>
<feBlend mode="normal" in="SourceGraphic" in2="effect1_backgroundBlur_2093_12492" result="shape"/>
</filter>
<linearGradient id="paint0_linear_2093_12492" x1="47.4405" y1="5.27121e-06" x2="32.3176" y2="13.2866" gradientUnits="userSpaceOnUse">
<stop stop-color="#4A44D7"/>
<stop offset="1" stop-color="#F98DDA"/>
</linearGradient>
<linearGradient id="paint1_linear_2093_12492" x1="1.42883" y1="17.5058" x2="15.9277" y2="-5.8742" gradientUnits="userSpaceOnUse">
<stop stop-color="white" stop-opacity="0"/>
<stop offset="1" stop-color="white"/>
</linearGradient>
<linearGradient id="paint2_linear_2093_12492" x1="14.9676" y1="42.8337" x2="22.9448" y2="22.6719" gradientUnits="userSpaceOnUse">
<stop stop-color="white"/>
<stop offset="1" stop-color="white" stop-opacity="0"/>
</linearGradient>
<clipPath id="clip0_2093_12492">
<rect width="20" height="20" fill="white" transform="translate(16 12)"/>
</clipPath>
</defs>
</svg>
