<svg width="0" height="0" xmlns="http://www.w3.org/2000/svg" class="hidden">
  <symbol viewBox="0 0 24 24" fill="none" id="chevron-left">
    <path d="M15 18L9 12L15 6" stroke-width="2" stroke-linecap="round" stroke-linejoin="round" />
  </symbol>
  <symbol viewBox="0 0 24 24" fill="none" id="chevron-right">
    <path d="M9 18L15 12L9 6" stroke-width="2" stroke-linecap="round" stroke-linejoin="round" />
  </symbol>
  <symbol viewBox="0 0 24 24" fill="none" id="expand">
    <path
      d="M14 10L21 3M21 3H15M21 3V9M10 14L3 21M3 21H9M3 21L3 15"
      stroke-width="2"
      stroke-linecap="round"
      stroke-linejoin="round"
    />
  </symbol>

  <symbol viewBox="0 0 24 25" fill="none" id="mail">
    <path
      d="M21.5 18.5L14.8571 12.5M9.14286 12.5L2.50003 18.5M2 7.5L10.1649 13.2154C10.8261 13.6783 11.1567 13.9097 11.5163 13.9993C11.8339 14.0785 12.1661 14.0785 12.4837 13.9993C12.8433 13.9097 13.1739 13.6783 13.8351 13.2154L22 7.5M6.8 20.5H17.2C18.8802 20.5 19.7202 20.5 20.362 20.173C20.9265 19.8854 21.3854 19.4265 21.673 18.862C22 18.2202 22 17.3802 22 15.7V9.3C22 7.61984 22 6.77976 21.673 6.13803C21.3854 5.57354 20.9265 5.1146 20.362 4.82698C19.7202 4.5 18.8802 4.5 17.2 4.5H6.8C5.11984 4.5 4.27976 4.5 3.63803 4.82698C3.07354 5.1146 2.6146 5.57354 2.32698 6.13803C2 6.77976 2 7.61984 2 9.3V15.7C2 17.3802 2 18.2202 2.32698 18.862C2.6146 19.4265 3.07354 19.8854 3.63803 20.173C4.27976 20.5 5.11984 20.5 6.8 20.5Z"
      stroke-width="2"
      stroke-linecap="round"
      stroke-linejoin="round"
    />
  </symbol>
  <symbol viewBox="0 0 26 26" stroke="none" id="moon">
    <path
      d="M25.4411 16.9465C25.6757 16.2134 25.7931 15.8468 25.7184 15.7069C25.6528 15.584 25.5322 15.5105 25.3929 15.5085C25.2344 15.5063 24.9269 15.814 24.3121 16.4294C22.4255 18.3176 19.8183 19.4856 16.9382 19.4856C11.1815 19.4856 6.51471 14.8189 6.51471 9.06213C6.51471 6.1818 7.683 3.57433 9.57157 1.68774C10.187 1.07294 10.4947 0.765547 10.4925 0.607032C10.4906 0.467693 10.417 0.34706 10.2941 0.281448C10.1542 0.206807 9.78768 0.324103 9.05453 0.558696C3.8025 2.23925 0 7.16088 0 12.9706C0 20.1666 5.83347 26 13.0294 26C18.8388 26 23.7602 22.198 25.4411 16.9465Z"
    />
  </symbol>
  <symbol viewBox="0 0 24 24" fill="none" id="sun">
    <path
      d="M12 1V3.2M12 20.8V23M3.2 12H1M5.74553 5.74553L4.18989 4.18989M18.2545 5.74553L19.8101 4.18989M5.74553 18.259L4.18989 19.8146M18.2545 18.259L19.8101 19.8146M23 12H20.8M17.5 12C17.5 15.0376 15.0376 17.5 12 17.5C8.96243 17.5 6.5 15.0376 6.5 12C6.5 8.96243 8.96243 6.5 12 6.5C15.0376 6.5 17.5 8.96243 17.5 12Z"
      stroke-width="1.66667"
      stroke-linecap="round"
      stroke-linejoin="round"
    />
  </symbol>
  <symbol viewBox="0 0 24 24" fill="none" id="info-circle">
    <path
      d="M12 16V12M12 8H12.01M22 12C22 17.5228 17.5228 22 12 22C6.47715 22 2 17.5228 2 12C2 6.47715 6.47715 2 12 2C17.5228 2 22 6.47715 22 12Z"
      stroke-width="2"
      stroke-linecap="round"
      stroke-linejoin="round"
    />
  </symbol>
  <symbol viewBox="0 0 24 24" fill="none" id="external-link">
    <path
      d="M21 9L21 3M21 3H15M21 3L13 11M10 5H7.8C6.11984 5 5.27976 5 4.63803 5.32698C4.07354 5.6146 3.6146 6.07354 3.32698 6.63803C3 7.27976 3 8.11984 3 9.8V16.2C3 17.8802 3 18.7202 3.32698 19.362C3.6146 19.9265 4.07354 20.3854 4.63803 20.673C5.27976 21 6.11984 21 7.8 21H14.2C15.8802 21 16.7202 21 17.362 20.673C17.9265 20.3854 18.3854 19.9265 18.673 19.362C19 18.7202 19 17.8802 19 16.2V14"
      stroke-width="2"
      stroke-linecap="round"
      stroke-linejoin="round"
    />
  </symbol>
  <symbol viewBox="0 0 18 19" stroke="none" id="linkedin">
    <path
      fill-rule="evenodd"
      clip-rule="evenodd"
      d="M1.5 0.203613C0.67157 0.203613 0 0.875183 0 1.70361V16.7036C0 17.532 0.67157 18.2036 1.5 18.2036H16.5C17.3284 18.2036 18 17.532 18 16.7036V1.70361C18 0.875183 17.3284 0.203613 16.5 0.203613H1.5ZM5.52076 4.20633C5.52639 5.16258 4.81061 5.7518 3.96123 5.74758C3.16107 5.74336 2.46357 5.10633 2.46779 4.20774C2.47201 3.36258 3.13998 2.68336 4.00764 2.70305C4.88795 2.72274 5.52639 3.36821 5.52076 4.20633ZM9.2797 6.96537H6.75971H6.7583V15.5252H9.4217V15.3255C9.4217 14.9456 9.4214 14.5656 9.4211 14.1855C9.4203 13.1717 9.4194 12.1568 9.4246 11.1433C9.426 10.8972 9.4372 10.6413 9.5005 10.4064C9.7381 9.52891 10.5271 8.96221 11.4074 9.10151C11.9727 9.19001 12.3467 9.51771 12.5042 10.0507C12.6013 10.3839 12.6449 10.7425 12.6491 11.0899C12.6605 12.1375 12.6589 13.1851 12.6573 14.2328C12.6567 14.6026 12.6561 14.9726 12.6561 15.3424V15.5238H15.328V15.3185C15.328 14.8665 15.3278 14.4146 15.3275 13.9627C15.327 12.8332 15.3264 11.7037 15.3294 10.5738C15.3308 10.0633 15.276 9.55991 15.1508 9.06631C14.9638 8.33221 14.5771 7.72471 13.9485 7.28601C13.5027 6.9738 13.0133 6.77271 12.4663 6.75021C12.404 6.74762 12.3412 6.74423 12.2781 6.74082C11.9984 6.7257 11.7141 6.71034 11.4467 6.76427C10.6817 6.91755 10.0096 7.26771 9.5019 7.88501C9.4429 7.95581 9.3852 8.02771 9.2991 8.13501L9.2797 8.15931V6.96537ZM2.68164 15.528H5.33242V6.97094H2.68164V15.528Z"
    />
  </symbol>
  <symbol viewBox="0 0 90 88" stroke="none" id="github">
    <path
      fill-rule="evenodd"
      clip-rule="evenodd"
      d="M44.8677 0.0214844C20.3853 0.0214844 0.59375 19.959 0.59375 44.6244C0.59375 64.3408 13.2749 81.0303 30.867 86.9372C33.0665 87.3813 33.8722 85.9775 33.8722 84.7966C33.8722 83.7626 33.7997 80.2183 33.7997 76.5253C21.4837 79.1842 18.919 71.2083 18.919 71.2083C16.9398 66.0391 14.0072 64.7105 14.0072 64.7105C9.97616 61.9782 14.3008 61.9782 14.3008 61.9782C18.7722 62.2736 21.1185 66.5565 21.1185 66.5565C25.0761 73.3498 31.4534 71.4304 34.019 70.2486C34.3851 67.3685 35.5587 65.3748 36.8048 64.2674C26.9819 63.2333 16.6471 59.3935 16.6471 42.2609C16.6471 37.3871 18.4052 33.3996 21.191 30.2984C20.7515 29.191 19.2118 24.6117 21.6314 18.4827C21.6314 18.4827 25.3697 17.301 33.7987 23.0611C37.4075 22.0847 41.1292 21.5881 44.8677 21.5839C48.606 21.5839 52.4168 22.1014 55.9357 23.0611C64.3657 17.301 68.1039 18.4827 68.1039 18.4827C70.5236 24.6117 68.983 29.191 68.5435 30.2984C71.4027 33.3996 73.0883 37.3871 73.0883 42.2609C73.0883 59.3935 62.7534 63.159 52.8572 64.2674C54.4703 65.6702 55.8623 68.3283 55.8623 72.5378C55.8623 78.519 55.7898 83.3195 55.7898 84.7957C55.7898 85.9775 56.5964 87.3813 58.7949 86.9381C76.3871 81.0294 89.0682 64.3408 89.0682 44.6244C89.1407 19.959 69.2766 0.0214844 44.8677 0.0214844Z"
    />
  </symbol>
</svg>
