<svg width="0" height="0" class="hidden">
  <symbol width="34" height="39" viewBox="0 0 34 39" fill="none" xmlns="http://www.w3.org/2000/svg" id="hard">
    <path d="M1 36.1155C6.25429 37.0032 10.7306 37.8808 16.1212 37.0781C15.535 34.2537 14.3171 25.5456 13.7814 21.5446L22.5763 26.1907C21.5891 23.3756 21.0534 19.3746 20.9524 13.1503C25.5726 17.8509 34.6477 24.6296 31.9088 18.5618C28.1429 10.2185 30.3324 0.882074 30.3324 0.882074" stroke-width="3"/>
  </symbol>    
  <symbol width="34" height="30"  viewBox="0 0 34 30" fill="none" xmlns="http://www.w3.org/2000/svg" id="half-hard">
    <path d="M26.9203 2C33.0465 8.13199 36.8166 23.2264 14.1958 6.24528L20.3226 20.3962L7.1269 15.2075V27L1.00006 23.6981" stroke-width="3"/>
  </symbol> 
  <symbol width="27" height="27"  viewBox="0 0 27 27" fill="none" xmlns="http://www.w3.org/2000/svg" id="squiggle">
    <path d="M25.7354 4.75195C12.708 -3.62003 5.53822 10.5784 12.5707 15.0978C16.6057 17.6909 18.974 12.8901 15.4463 10.6231C5.41643 4.17739 -3.11805 18.4715 5.6437 24.1022C10.3704 27.1399 12.4391 22.1465 9.67222 20.3684" stroke-width="3"/>
  </symbol>
</svg>
