<svg width="0" height="0" class="hidden">
  <symbol
      viewBox="0 0 1440 1361"
      xmlns="http://www.w3.org/2000/svg"
      xmlnsXlink="http://www.w3.org/1999/xlink"
      id='home-curve'
      preserveAspectRatio="none"
    >
    <path
      fill-rule="evenodd"
      clip-rule="evenodd"
      d="M698.29 448C506.326 448 374.5 594.099 374.5 709.713C374.5 778.476 392.711 801.32 403.316 812.694C422.33 833.086 455.093 853.191 524.014 882.937C531.876 886.33 541.02 890.131 551.158 894.344C607.966 917.952 695.97 954.524 764.268 1005.07C865.834 1080.24 944 1195.97 944 1361H497.763C497.763 1361 451.32 1338.93 397.263 1315.96C382.58 1309.73 365.809 1302.6 346.486 1294.26C273.032 1262.56 163.42 1212.34 75.6531 1118.21C-20.5232 1015.06 -73.5 879.19 -73.5 709.713C-73.5 288.823 321.02 0 698.29 0C889.817 0 1066.46 70.2373 1199.2 187.617L1840.97 739.13L1586 1107.5L919.154 538.627L907.436 527.755C855.49 479.565 782.143 448 698.29 448Z"
    />
    <path
      fill-rule="evenodd"
      clip-rule="evenodd"
      d="M698.29 448C506.326 448 374.5 594.099 374.5 709.713C374.5 778.476 392.711 801.32 403.316 812.694C422.33 833.086 455.093 853.191 524.014 882.937C531.876 886.33 541.02 890.131 551.158 894.344C607.966 917.952 695.97 954.524 764.268 1005.07C865.834 1080.24 944 1195.97 944 1361H497.763C497.763 1361 451.32 1338.93 397.263 1315.96C382.58 1309.73 365.809 1302.6 346.486 1294.26C273.032 1262.56 163.42 1212.34 75.6531 1118.21C-20.5232 1015.06 -73.5 879.19 -73.5 709.713C-73.5 288.823 321.02 0 698.29 0C889.817 0 1066.46 70.2373 1199.2 187.617L1840.97 739.13L1586 1107.5L919.154 538.627L907.436 527.755C855.49 479.565 782.143 448 698.29 448Z"
    />
    <path
      fill-rule="evenodd"
      clip-rule="evenodd"
      d="M698.29 448C506.326 448 374.5 594.099 374.5 709.713C374.5 778.476 392.711 801.32 403.316 812.694C422.33 833.086 455.093 853.191 524.014 882.937C531.876 886.33 541.02 890.131 551.158 894.344C607.966 917.952 695.97 954.524 764.268 1005.07C865.834 1080.24 944 1195.97 944 1361H497.763C497.763 1361 451.32 1338.93 397.263 1315.96C382.58 1309.73 365.809 1302.6 346.486 1294.26C273.032 1262.56 163.42 1212.34 75.6531 1118.21C-20.5232 1015.06 -73.5 879.19 -73.5 709.713C-73.5 288.823 321.02 0 698.29 0C889.817 0 1066.46 70.2373 1199.2 187.617L1840.97 739.13L1586 1107.5L919.154 538.627L907.436 527.755C855.49 479.565 782.143 448 698.29 448Z"
    />
  </symbol> 
</svg>