<svg width="0" height="0" class="hidden">
  <symbol
      viewBox="0 0 1915 1362"
      xmlns="http://www.w3.org/2000/svg"
      xmlnsXlink="http://www.w3.org/1999/xlink"
      id='home-curve'
      preserveAspectRatio="none"
    >
    <path fill-rule="evenodd" clip-rule="evenodd" d="M771.79 448.523C579.826 448.523 448 594.622 448 710.236C448 778.999 466.211 801.843 476.816 813.217C495.83 833.609 528.593 853.714 597.514 883.46C605.376 886.853 614.52 890.654 624.658 894.867C681.466 918.475 769.47 955.047 837.768 1005.59C939.334 1080.76 1017.5 1196.5 1017.5 1361.52H571.263C571.263 1361.52 524.82 1339.45 470.763 1316.49C456.08 1310.25 439.309 1303.12 419.986 1294.78C346.532 1263.08 236.92 1212.86 149.153 1118.74C52.9768 1015.59 0 879.713 0 710.236C0 289.346 394.52 0.522949 771.79 0.522949C963.317 0.522949 1139.96 70.7602 1272.7 188.14L1914.47 739.653L1659.5 1108.02L992.654 539.15L980.936 528.278C928.99 480.088 855.643 448.523 771.79 448.523Z" />
  </symbol> 
</svg>