<svg width="0" height="0" class="hidden">
  <symbol stroke="none" preserveAspectRatio="xMidYMid" xmlns="http://www.w3.org/2000/svg" xmlns:xlink="http://www.w3.org/1999/xlink" viewBox="0 -30.632388516510233 255.324 285.95638851651023" id="jira"><linearGradient id="a"><stop offset=".18" stop-color="#0052cc"/><stop offset="1" stop-color="#2684ff"/></linearGradient><linearGradient id="b" x1="98.031%" x2="58.888%" xlink:href="#a" y1=".161%" y2="40.766%"/><linearGradient id="c" x1="100.665%" x2="55.402%" xlink:href="#a" y1=".455%" y2="44.727%"/><path d="M244.658 0H121.707a55.502 55.502 0 0 0 55.502 55.502h22.649V77.37c.02 30.625 24.841 55.447 55.466 55.467V10.666C255.324 4.777 250.55 0 244.658 0z" fill="#2684ff"/><path d="M183.822 61.262H60.872c.019 30.625 24.84 55.447 55.466 55.467h22.649v21.938c.039 30.625 24.877 55.43 55.502 55.43V71.93c0-5.891-4.776-10.667-10.667-10.667z" fill="url(#b)"/><path d="M122.951 122.489H0c0 30.653 24.85 55.502 55.502 55.502h22.72v21.867c.02 30.597 24.798 55.408 55.396 55.466V133.156c0-5.891-4.776-10.667-10.667-10.667z" fill="url(#c)"/></symbol>
  <symbol viewBox="0 0 90 88" stroke="none" xmlns="http://www.w3.org/2000/svg" id="github">
    <path fill-rule="evenodd" clip-rule="evenodd" d="M44.8677 0.0214844C20.3853 0.0214844 0.59375 19.959 0.59375 44.6244C0.59375 64.3408 13.2749 81.0303 30.867 86.9372C33.0665 87.3813 33.8722 85.9775 33.8722 84.7966C33.8722 83.7626 33.7997 80.2183 33.7997 76.5253C21.4837 79.1842 18.919 71.2083 18.919 71.2083C16.9398 66.0391 14.0072 64.7105 14.0072 64.7105C9.97616 61.9782 14.3008 61.9782 14.3008 61.9782C18.7722 62.2736 21.1185 66.5565 21.1185 66.5565C25.0761 73.3498 31.4534 71.4304 34.019 70.2486C34.3851 67.3685 35.5587 65.3748 36.8048 64.2674C26.9819 63.2333 16.6471 59.3935 16.6471 42.2609C16.6471 37.3871 18.4052 33.3996 21.191 30.2984C20.7515 29.191 19.2118 24.6117 21.6314 18.4827C21.6314 18.4827 25.3697 17.301 33.7987 23.0611C37.4075 22.0847 41.1292 21.5881 44.8677 21.5839C48.606 21.5839 52.4168 22.1014 55.9357 23.0611C64.3657 17.301 68.1039 18.4827 68.1039 18.4827C70.5236 24.6117 68.983 29.191 68.5435 30.2984C71.4027 33.3996 73.0883 37.3871 73.0883 42.2609C73.0883 59.3935 62.7534 63.159 52.8572 64.2674C54.4703 65.6702 55.8623 68.3283 55.8623 72.5378C55.8623 78.519 55.7898 83.3195 55.7898 84.7957C55.7898 85.9775 56.5964 87.3813 58.7949 86.9381C76.3871 81.0294 89.0682 64.3408 89.0682 44.6244C89.1407 19.959 69.2766 0.0214844 44.8677 0.0214844Z" />
  </symbol> 
  <symbol fill="none" xmlns="http://www.w3.org/2000/svg" viewBox="0 0 87 88" id="dato">
    <path d="M43.4998 0.0214844H0.27832V87.0215H43.4998C65.115 87.0215 86.7225 67.5446 86.7225 43.5337C86.7225 19.5228 65.124 0.0214844 43.4998 0.0214844ZM43.4998 63.2872C39.5904 63.2859 35.7691 62.1254 32.5193 59.9524C29.2694 57.7794 26.7369 54.6915 25.242 51.0792C23.7471 47.4668 23.357 43.4924 24.1209 39.6583C24.8849 35.8243 26.7686 32.3028 29.5338 29.5394C32.2991 26.7759 35.8217 24.8945 39.6563 24.133C43.4908 23.3716 47.4651 23.7643 51.0764 25.2616C54.6878 26.7588 57.774 29.2933 59.9449 32.5446C62.1158 35.7959 63.2738 39.6179 63.2726 43.5273C63.2727 46.1233 62.7613 48.6939 61.7675 51.0922C60.7738 53.4905 59.3171 55.6695 57.4808 57.5046C55.6446 59.3397 53.4647 60.7949 51.0657 61.7871C48.6668 62.7793 46.0958 63.2891 43.4998 63.2872Z" fill="url(#paint0_linear_1073_9497)"></path>
    <defs>
      <linearGradient id="paint0_linear_1073_9497" x1="1" y1="1" x2="1" y2="0" gradientUnits="objectBoundingBox">
        <stop stop-color="#FF7751"></stop>
        <stop offset="1" stop-color="#FF593D"></stop>
      </linearGradient>
    </defs>
  </symbol>
  <symbol viewBox=".15 .13 799.7 479.69" xmlns="http://www.w3.org/2000/svg" id="tailwind"><path d="m400 .13c-106.63 0-173.27 53.3-199.93 159.89 39.99-53.3 86.64-73.28 139.95-59.96 30.42 7.6 52.16 29.67 76.23 54.09 39.2 39.78 84.57 85.82 183.68 85.82 106.62 0 173.27-53.3 199.92-159.9-39.98 53.3-86.63 73.29-139.95 59.97-30.41-7.6-52.15-29.67-76.22-54.09-39.2-39.78-84.58-85.82-183.68-85.82zm-199.93 239.84c-106.62 0-173.27 53.3-199.92 159.9 39.98-53.3 86.63-73.29 139.95-59.96 30.41 7.61 52.15 29.67 76.22 54.08 39.2 39.78 84.58 85.83 183.68 85.83 106.63 0 173.27-53.3 199.93-159.9-39.99 53.3-86.64 73.29-139.95 59.96-30.42-7.59-52.16-29.67-76.23-54.08-39.2-39.78-84.57-85.83-183.68-85.83z" fill="#06b6d4"/></symbol>
  <symbol viewBox=".5 -.2 1023 1024.1" xmlns="http://www.w3.org/2000/svg" stroke='none' id="nextjs"><path d="m478.5.6c-2.2.2-9.2.9-15.5 1.4-145.3 13.1-281.4 91.5-367.6 212-48 67-78.7 143-90.3 223.5-4.1 28.1-4.6 36.4-4.6 74.5s.5 46.4 4.6 74.5c27.8 192.1 164.5 353.5 349.9 413.3 33.2 10.7 68.2 18 108 22.4 15.5 1.7 82.5 1.7 98 0 68.7-7.6 126.9-24.6 184.3-53.9 8.8-4.5 10.5-5.7 9.3-6.7-.8-.6-38.3-50.9-83.3-111.7l-81.8-110.5-102.5-151.7c-56.4-83.4-102.8-151.6-103.2-151.6-.4-.1-.8 67.3-1 149.6-.3 144.1-.4 149.9-2.2 153.3-2.6 4.9-4.6 6.9-8.8 9.1-3.2 1.6-6 1.9-21.1 1.9h-17.3l-4.6-2.9c-3-1.9-5.2-4.4-6.7-7.3l-2.1-4.5.2-200.5.3-200.6 3.1-3.9c1.6-2.1 5-4.8 7.4-6.1 4.1-2 5.7-2.2 23-2.2 20.4 0 23.8.8 29.1 6.6 1.5 1.6 57 85.2 123.4 185.9s157.2 238.2 201.8 305.7l81 122.7 4.1-2.7c36.3-23.6 74.7-57.2 105.1-92.2 64.7-74.3 106.4-164.9 120.4-261.5 4.1-28.1 4.6-36.4 4.6-74.5s-.5-46.4-4.6-74.5c-27.8-192.1-164.5-353.5-349.9-413.3-32.7-10.6-67.5-17.9-106.5-22.3-9.6-1-75.7-2.1-84-1.3zm209.4 309.4c4.8 2.4 8.7 7 10.1 11.8.8 2.6 1 58.2.8 183.5l-.3 179.8-31.7-48.6-31.8-48.6v-130.7c0-84.5.4-132 1-134.3 1.6-5.6 5.1-10 9.9-12.6 4.1-2.1 5.6-2.3 21.3-2.3 14.8 0 17.4.2 20.7 2z"/><path d="m784.3 945.1c-3.5 2.2-4.6 3.7-1.5 2 2.2-1.3 5.8-4 5.2-4.1-.3 0-2 1-3.7 2.1zm-6.9 4.5c-1.8 1.4-1.8 1.5.4.4 1.2-.6 2.2-1.3 2.2-1.5 0-.8-.5-.6-2.6 1.1zm-5 3c-1.8 1.4-1.8 1.5.4.4 1.2-.6 2.2-1.3 2.2-1.5 0-.8-.5-.6-2.6 1.1zm-5 3c-1.8 1.4-1.8 1.5.4.4 1.2-.6 2.2-1.3 2.2-1.5 0-.8-.5-.6-2.6 1.1zm-7.6 4c-3.8 2-3.6 2.8.2.9 1.7-.9 3-1.8 3-2 0-.7-.1-.6-3.2 1.1z"/></symbol>
  <symbol enable-background="new 0 0 2500 2500" viewBox="0 0 2500 2500" xmlns="http://www.w3.org/2000/svg" id="gatsby"><path d="m1250 0c-690.4 0-1250 559.6-1250 1250s559.6 1250 1250 1250 1250-559.6 1250-1250-559.6-1250-1250-1250zm-981.4 1263 968.4 968.4c-531.8-6.9-961.5-436.6-968.4-968.4zm1201.1 943.9-1176.6-1176.6c99.8-436.3 490.3-761.9 956.9-761.9 326.1 0 615.1 159.1 793.6 403.9l-135.9 119.9c-144.8-207.6-385.4-343.5-657.7-343.5-346.7 0-642 220.2-753.6 528.4l1026.5 1026.4c249.3-90.3 441-300.7 505.2-561.3h-425.4v-192.2h629c-.1 466.6-325.7 857.1-762 956.9z" fill="#744c9e"/></symbol>
  <symbol viewBox="0 0 59 88" stroke="none" xmlns="http://www.w3.org/2000/svg" id="figma">
    <path d="M15.0938 87.0215C23.0977 87.0215 29.5938 80.5255 29.5938 72.5215V58.0215H15.0938C7.08975 58.0215 0.59375 64.5175 0.59375 72.5215C0.59375 80.5255 7.08975 87.0215 15.0938 87.0215Z" fill="#0ACF83"/>
    <path d="M0.59375 43.5215C0.59375 35.5175 7.08975 29.0215 15.0938 29.0215H29.5938V58.0215H15.0938C7.08975 58.0215 0.59375 51.5255 0.59375 43.5215Z" fill="#A259FF"/>
    <path d="M0.59375 14.5215C0.59375 6.51748 7.08975 0.0214844 15.0938 0.0214844H29.5938V29.0215H15.0938C7.08975 29.0215 0.59375 22.5255 0.59375 14.5215Z" fill="#F24E1E"/>
    <path d="M29.5938 0.0214844H44.0938C52.0977 0.0214844 58.5938 6.51748 58.5938 14.5215C58.5938 22.5255 52.0977 29.0215 44.0938 29.0215H29.5938V0.0214844Z" fill="#FF7262"/>
    <path d="M58.5938 43.5215C58.5938 51.5255 52.0977 58.0215 44.0938 58.0215C36.0897 58.0215 29.5938 51.5255 29.5938 43.5215C29.5938 35.5175 36.0897 29.0215 44.0938 29.0215C52.0977 29.0215 58.5938 35.5175 58.5938 43.5215Z" fill="#1ABCFE"/>
  </symbol>
  <symbol viewBox="0 0 58 58" stroke="none" xmlns="http://www.w3.org/2000/svg" id="contentful">
    <path d="M58 29C58 45.0163 45.0163 58 29 58C12.9837 58 0 45.0163 0 29C0 12.9837 12.9837 0 29 0C45.0163 0 58 12.9837 58 29Z" fill="#0033A3"/>
    <path d="M24.2361 35.4713C22.4475 33.7928 21.3744 31.4814 21.3744 28.8398C21.3744 26.1983 22.42 23.8869 24.126 22.2084C25.6119 20.7226 25.6119 18.4112 24.126 16.9253C22.6401 15.4395 20.3288 15.4395 18.8429 16.9253C15.8987 19.9796 14.0001 24.1896 14.0001 28.8398C14.0001 33.4901 15.8987 37.7001 18.953 40.7544C20.4388 42.2402 22.7502 42.2402 24.2361 40.7544C25.5844 39.2685 25.5844 36.9571 24.2361 35.4713Z" fill="#FFD85F"/>
    <path d="M24.2361 22.2085C25.9145 20.4199 28.2534 19.3743 30.8675 19.3743C33.4815 19.3743 35.8204 20.4199 37.4989 22.1259C38.9847 23.6118 41.2961 23.6118 42.782 22.1259C44.2678 20.64 44.2678 18.3287 42.782 16.8428C39.7277 13.8986 35.5177 12 30.8675 12C26.2172 12 22.0072 13.8986 18.953 16.9529C17.4671 18.4387 17.4671 20.7501 18.953 22.236C20.4388 23.5568 22.7502 23.5568 24.2361 22.2085Z" fill="#3BB4E7"/>
    <path d="M37.4989 35.4712C35.8204 37.2598 33.4815 38.3054 30.8675 38.3054C28.2534 38.3054 25.9145 37.2598 24.2361 35.5538C22.7502 34.0679 20.4388 34.0679 18.953 35.5538C17.4671 37.0397 17.4671 39.351 18.953 40.8369C22.0072 43.7811 26.2172 45.6798 30.8675 45.6798C35.5177 45.6798 39.7277 43.7811 42.782 40.7268C44.2678 39.241 44.2678 36.9296 42.782 35.4437C41.2961 34.1229 38.9847 34.123 37.4989 35.4712Z" fill="#ED5C68"/>
    <path d="M21.5945 23.2541C23.6309 23.2541 25.2817 21.6033 25.2817 19.5669C25.2817 17.5305 23.6309 15.8797 21.5945 15.8797C19.5581 15.8797 17.9073 17.5305 17.9073 19.5669C17.9073 21.6033 19.5581 23.2541 21.5945 23.2541Z" fill="#308BC5"/>
    <path d="M21.5945 41.8C23.6309 41.8 25.2817 40.1492 25.2817 38.1128C25.2817 36.0765 23.6309 34.4256 21.5945 34.4256C19.5581 34.4256 17.9073 36.0765 17.9073 38.1128C17.9073 40.1492 19.5581 41.8 21.5945 41.8Z" fill="#D5465F"/>
  </symbol>
  <symbol viewBox="0 0 15 15" stroke="none" xmlns="http://www.w3.org/2000/svg" data-scope="icon" id="panda"><path d="M10.7608 0.390669C9.38613 -0.0126127 7.98396 -0.067426 6.55506 0.0630881C5.75542 0.147945 4.98667 0.310054 4.24518 0.594509C2.64244 1.20936 1.43903 2.27424 0.72147 3.87754C0.207033 5.02698 0.0211109 6.24802 0.0017347 7.50081C-0.0187424 8.8248 0.143717 10.1305 0.401862 11.4249C0.635852 12.5983 0.947463 13.7487 1.39249 14.8591C1.43477 14.9646 1.48743 15.0002 1.60028 15C3.0078 14.9969 4.41533 14.9969 5.82286 14.9969C6.23955 14.9969 6.65623 14.9969 7.07292 14.9968C7.10483 14.9968 7.13673 14.995 7.17342 14.993C7.19215 14.9919 7.21213 14.9908 7.23399 14.9898C7.22553 14.9693 7.21796 14.9504 7.21087 14.9327C7.19692 14.8979 7.18479 14.8676 7.17125 14.838C7.06947 14.6156 6.96558 14.3942 6.86169 14.1728C6.63635 13.6924 6.41101 13.2121 6.20721 12.7224C5.5891 11.2373 5.11575 9.7082 4.9713 8.08959C4.90756 7.37541 4.91641 6.66531 5.11044 5.96941C5.33222 5.17396 5.80814 4.6124 6.59715 4.37763C7.32168 4.16204 8.05629 4.16346 8.77688 4.40144C9.42 4.61383 9.8393 5.06248 10.0176 5.73423C10.1546 6.25013 10.1546 6.77159 10.051 7.29169C9.97115 7.69214 9.81051 8.05756 9.52137 8.34988C9.00271 8.87423 8.35495 8.9948 7.6599 8.95462C7.53624 8.94747 7.41295 8.93362 7.28592 8.91936C7.22642 8.91267 7.16609 8.9059 7.10452 8.89968C7.10629 8.91977 7.10727 8.93828 7.10819 8.95562C7.10999 8.98973 7.11156 9.01931 7.11843 9.04755C7.14805 9.16913 7.17627 9.29115 7.2045 9.41319C7.27249 9.70715 7.3405 10.0012 7.42793 10.289C7.59961 10.8542 7.79925 11.4058 8.02556 11.9443C9.63883 11.8158 11.1248 11.4062 12.7019 10.4393C12.7256 10.4241 12.7471 10.4103 12.7686 10.3966C13.4461 9.96587 13.9944 9.40712 14.3725 8.68563C14.9848 7.51725 15.1042 6.26777 14.9223 4.97808C14.7345 3.64712 14.1497 2.52993 13.1429 1.6536C12.4446 1.0458 11.6371 0.647746 10.7608 0.390669Z" fill="#fde047"></path></symbol>
  <symbol xmlns="http://www.w3.org/2000/svg" xmlns:xlink="http://www.w3.org/1999/xlink" version="1.1" viewBox="0 0 52 64" id="storybook"><title>icon-storybook-default</title><defs><path id="path-1" d="M1.94279175,57.1309472 L0.0022554267,5.95476663 C-0.0618328758,4.26461814 1.24754196,2.83223697 2.95307926,2.72673418 L46.9330824,0.00617628491 C48.6691159,-0.10121296 50.1644074,1.2046298 50.2729096,2.92285771 C50.2769973,2.98759391 50.2790429,3.05244063 50.2790429,3.11730315 L50.2790429,58.8828028 C50.2790429,60.6043831 48.8689636,62 47.1295431,62 C47.0824212,62 47.0353056,61.9989534 46.9882313,61.9968606 L4.94876437,60.1280997 C3.31149338,60.0553189 2.00425692,58.751918 1.94279175,57.1309472 Z"/></defs><g id="icon-storybook-default" fill="none" fill-rule="evenodd" stroke="none" stroke-width="1"><g id="icon" transform="translate(1.000000, 1.000000)"><path id="Combined-Shape" fill="#FF4785" fill-rule="nonzero" d="M50.2729096,2.92285771 C50.2769973,2.98759391 50.2790429,3.05244063 50.2790429,3.11730315 L50.2790429,58.8828028 C50.2790429,60.6043831 48.8689636,62 47.1295431,62 C47.0824212,62 47.0353056,61.9989534 46.9882313,61.9968606 L4.94876437,60.1280997 C3.31149338,60.0553189 2.00425692,58.751918 1.94279175,57.1309472 L0.0022554267,5.95476663 C-0.0618328758,4.26461814 1.24754196,2.83223697 2.95307926,2.72673418 L37.427,0.594 L37.1272753,7.62078766 C37.1238721,7.70179664 37.1419373,7.78178731 37.179031,7.85305525 L37.2223772,7.92113026 C37.3791917,8.12573637 37.6738999,8.16578288 37.880626,8.0105767 L37.880626,8.0105767 L40.6382617,5.94019678 L42.9673936,7.75618537 C43.0546693,7.82423279 43.1634862,7.85946584 43.2745216,7.85562813 C43.5338374,7.84666553 43.7367132,7.6313391 43.7276576,7.37468316 L43.7276576,7.37468316 L43.467,0.22 L46.9330824,0.00617628491 C48.6691159,-0.10121296 50.1644074,1.2046298 50.2729096,2.92285771 Z"/><mask id="mask-2" fill="#fff"><use xlink:href="#path-1"/></mask><path id="S" fill="#FFF" fill-rule="nonzero" d="M29.4029796,23.368648 C29.4029796,24.58142 37.6567008,24.00017 38.7646901,23.1482813 C38.7646901,14.8895929 34.2873503,10.5497821 26.0885852,10.5497821 C17.88982,10.5497821 13.2961856,14.9571143 13.2961856,21.5681161 C13.2961856,33.0822778 28.9959487,33.3026444 28.9959487,39.5830962 C28.9959487,41.3460299 28.1237396,42.3927719 26.2048797,42.3927719 C23.7045471,42.3927719 22.7160434,41.1289316 22.832338,36.8317805 C22.832338,35.8995698 13.2961856,35.6089448 13.0054493,36.8317805 C12.2651161,47.2453073 18.8201763,50.248968 26.3211742,50.248968 C33.5895831,50.248968 39.2880157,46.4144645 39.2880157,39.4729126 C39.2880157,27.132376 23.3556634,27.4629261 23.3556634,21.3477494 C23.3556634,18.8686237 25.2163761,18.5380737 26.3211742,18.5380737 C27.4841196,18.5380737 29.5774214,18.7409467 29.4029796,23.368648 Z" mask="url(#mask-2)"/><path id="bookmark" fill="#FFF" fill-rule="nonzero" d="M37.1272753,7.62078766 L37.4276823,0.591583333 L43.4674595,0.218291667 L43.7276576,7.37468316 C43.7367132,7.6313391 43.5338374,7.84666553 43.2745216,7.85562813 C43.1634862,7.85946584 43.0546693,7.82423279 42.9673936,7.75618537 L40.6382617,5.94019678 L37.880626,8.0105767 C37.6738999,8.16578288 37.3791917,8.12573637 37.2223772,7.92113026 C37.1563661,7.83500129 37.1227378,7.72879963 37.1272753,7.62078766 Z" mask="url(#mask-2)"/></g></g></symbol>
</svg>