<svg
  width="0"
  height="0"
  style="visibility: hidden"
  class="hidden"
  xmlns="http://www.w3.org/2000/svg"
  xmlns:xlink="http://www.w3.org/1999/xlink"
>
  <defs>
    <linearGradient id="jira-a">
      <stop offset=".18" stop-color="#0052cc" />
      <stop offset="1" stop-color="#2684ff" />
    </linearGradient>
    <linearGradient id="jira-b" x1="98.031%" x2="58.888%" xlink:href="#jira-a" y1=".161%" y2="40.766%" />
    <linearGradient id="jira-c" x1="100.665%" x2="55.402%" xlink:href="#jira-a" y1=".455%" y2="44.727%" />

    <linearGradient id="dato-gradient" x1="1" y1="1" x2="1" y2="0" gradientUnits="objectBoundingBox">
      <stop stop-color="#FF7751"></stop>
      <stop offset="1" stop-color="#FF593D"></stop>
    </linearGradient>

    <linearGradient
      id="turbo-gradient"
      x1="0"
      y1="0"
      x2="1"
      y2="0"
      gradientUnits="userSpaceOnUse"
      gradientTransform="matrix(-2.73101,2.73099,-2.73099,-2.73101,3.24766,0.526225)"
    >
      <stop offset="0" stop-color="#0096ff" style="stop-opacity: 1" />
      <stop offset="1" stop-color="#ff1e56" style="stop-opacity: 1" />
    </linearGradient>

    <linearGradient id="supabase-1" x1="53.9738" y1="54.974" x2="94.1635" y2="71.8295" gradientUnits="userSpaceOnUse">
      <stop stop-color="#249361" />
      <stop offset="1" stop-color="#3ECF8E" />
    </linearGradient>
    <linearGradient id="supabase-2" x1="36.1558" y1="30.578" x2="54.4844" y2="65.0806" gradientUnits="userSpaceOnUse">
      <stop />
      <stop offset="1" stop-opacity="0" />
    </linearGradient>
  </defs>
  <symbol
    stroke="none"
    preserveAspectRatio="xMidYMid"
    viewBox="0 -30.632388516510233 255.324 285.95638851651023"
    id="jira"
  >
    <path
      d="M244.658 0H121.707a55.502 55.502 0 0 0 55.502 55.502h22.649V77.37c.02 30.625 24.841 55.447 55.466 55.467V10.666C255.324 4.777 250.55 0 244.658 0z"
      fill="#2684ff"
    />
    <path
      d="M183.822 61.262H60.872c.019 30.625 24.84 55.447 55.466 55.467h22.649v21.938c.039 30.625 24.877 55.43 55.502 55.43V71.93c0-5.891-4.776-10.667-10.667-10.667z"
      fill="url(#jira-b)"
    />
    <path
      d="M122.951 122.489H0c0 30.653 24.85 55.502 55.502 55.502h22.72v21.867c.02 30.597 24.798 55.408 55.396 55.466V133.156c0-5.891-4.776-10.667-10.667-10.667z"
      fill="url(#jira-c)"
    />
  </symbol>
  <symbol viewBox="0 0 90 88" stroke="none" id="github">
    <path
      fill-rule="evenodd"
      clip-rule="evenodd"
      d="M44.8677 0.0214844C20.3853 0.0214844 0.59375 19.959 0.59375 44.6244C0.59375 64.3408 13.2749 81.0303 30.867 86.9372C33.0665 87.3813 33.8722 85.9775 33.8722 84.7966C33.8722 83.7626 33.7997 80.2183 33.7997 76.5253C21.4837 79.1842 18.919 71.2083 18.919 71.2083C16.9398 66.0391 14.0072 64.7105 14.0072 64.7105C9.97616 61.9782 14.3008 61.9782 14.3008 61.9782C18.7722 62.2736 21.1185 66.5565 21.1185 66.5565C25.0761 73.3498 31.4534 71.4304 34.019 70.2486C34.3851 67.3685 35.5587 65.3748 36.8048 64.2674C26.9819 63.2333 16.6471 59.3935 16.6471 42.2609C16.6471 37.3871 18.4052 33.3996 21.191 30.2984C20.7515 29.191 19.2118 24.6117 21.6314 18.4827C21.6314 18.4827 25.3697 17.301 33.7987 23.0611C37.4075 22.0847 41.1292 21.5881 44.8677 21.5839C48.606 21.5839 52.4168 22.1014 55.9357 23.0611C64.3657 17.301 68.1039 18.4827 68.1039 18.4827C70.5236 24.6117 68.983 29.191 68.5435 30.2984C71.4027 33.3996 73.0883 37.3871 73.0883 42.2609C73.0883 59.3935 62.7534 63.159 52.8572 64.2674C54.4703 65.6702 55.8623 68.3283 55.8623 72.5378C55.8623 78.519 55.7898 83.3195 55.7898 84.7957C55.7898 85.9775 56.5964 87.3813 58.7949 86.9381C76.3871 81.0294 89.0682 64.3408 89.0682 44.6244C89.1407 19.959 69.2766 0.0214844 44.8677 0.0214844Z"
      fill="currentColor"
    />
  </symbol>
  <symbol fill="none" viewBox="0 0 87 88" id="dato">
    <path
      d="M43.4998 0.0214844H0.27832V87.0215H43.4998C65.115 87.0215 86.7225 67.5446 86.7225 43.5337C86.7225 19.5228 65.124 0.0214844 43.4998 0.0214844ZM43.4998 63.2872C39.5904 63.2859 35.7691 62.1254 32.5193 59.9524C29.2694 57.7794 26.7369 54.6915 25.242 51.0792C23.7471 47.4668 23.357 43.4924 24.1209 39.6583C24.8849 35.8243 26.7686 32.3028 29.5338 29.5394C32.2991 26.7759 35.8217 24.8945 39.6563 24.133C43.4908 23.3716 47.4651 23.7643 51.0764 25.2616C54.6878 26.7588 57.774 29.2933 59.9449 32.5446C62.1158 35.7959 63.2738 39.6179 63.2726 43.5273C63.2727 46.1233 62.7613 48.6939 61.7675 51.0922C60.7738 53.4905 59.3171 55.6695 57.4808 57.5046C55.6446 59.3397 53.4647 60.7949 51.0657 61.7871C48.6668 62.7793 46.0958 63.2891 43.4998 63.2872Z"
      fill="url(#dato-gradient)"
    ></path>
  </symbol>
  <symbol viewBox=".15 .13 799.7 479.69" id="tailwind">
    <path
      d="m400 .13c-106.63 0-173.27 53.3-199.93 159.89 39.99-53.3 86.64-73.28 139.95-59.96 30.42 7.6 52.16 29.67 76.23 54.09 39.2 39.78 84.57 85.82 183.68 85.82 106.62 0 173.27-53.3 199.92-159.9-39.98 53.3-86.63 73.29-139.95 59.97-30.41-7.6-52.15-29.67-76.22-54.09-39.2-39.78-84.58-85.82-183.68-85.82zm-199.93 239.84c-106.62 0-173.27 53.3-199.92 159.9 39.98-53.3 86.63-73.29 139.95-59.96 30.41 7.61 52.15 29.67 76.22 54.08 39.2 39.78 84.58 85.83 183.68 85.83 106.63 0 173.27-53.3 199.93-159.9-39.99 53.3-86.64 73.29-139.95 59.96-30.42-7.59-52.16-29.67-76.23-54.08-39.2-39.78-84.57-85.83-183.68-85.83z"
      fill="#06b6d4"
    />
  </symbol>
  <symbol viewBox=".5 -.2 1023 1024.1" stroke="none" id="nextjs">
    <path
      d="m478.5.6c-2.2.2-9.2.9-15.5 1.4-145.3 13.1-281.4 91.5-367.6 212-48 67-78.7 143-90.3 223.5-4.1 28.1-4.6 36.4-4.6 74.5s.5 46.4 4.6 74.5c27.8 192.1 164.5 353.5 349.9 413.3 33.2 10.7 68.2 18 108 22.4 15.5 1.7 82.5 1.7 98 0 68.7-7.6 126.9-24.6 184.3-53.9 8.8-4.5 10.5-5.7 9.3-6.7-.8-.6-38.3-50.9-83.3-111.7l-81.8-110.5-102.5-151.7c-56.4-83.4-102.8-151.6-103.2-151.6-.4-.1-.8 67.3-1 149.6-.3 144.1-.4 149.9-2.2 153.3-2.6 4.9-4.6 6.9-8.8 9.1-3.2 1.6-6 1.9-21.1 1.9h-17.3l-4.6-2.9c-3-1.9-5.2-4.4-6.7-7.3l-2.1-4.5.2-200.5.3-200.6 3.1-3.9c1.6-2.1 5-4.8 7.4-6.1 4.1-2 5.7-2.2 23-2.2 20.4 0 23.8.8 29.1 6.6 1.5 1.6 57 85.2 123.4 185.9s157.2 238.2 201.8 305.7l81 122.7 4.1-2.7c36.3-23.6 74.7-57.2 105.1-92.2 64.7-74.3 106.4-164.9 120.4-261.5 4.1-28.1 4.6-36.4 4.6-74.5s-.5-46.4-4.6-74.5c-27.8-192.1-164.5-353.5-349.9-413.3-32.7-10.6-67.5-17.9-106.5-22.3-9.6-1-75.7-2.1-84-1.3zm209.4 309.4c4.8 2.4 8.7 7 10.1 11.8.8 2.6 1 58.2.8 183.5l-.3 179.8-31.7-48.6-31.8-48.6v-130.7c0-84.5.4-132 1-134.3 1.6-5.6 5.1-10 9.9-12.6 4.1-2.1 5.6-2.3 21.3-2.3 14.8 0 17.4.2 20.7 2z"
      fill="currentColor"
    />
    <path
      d="m784.3 945.1c-3.5 2.2-4.6 3.7-1.5 2 2.2-1.3 5.8-4 5.2-4.1-.3 0-2 1-3.7 2.1zm-6.9 4.5c-1.8 1.4-1.8 1.5.4.4 1.2-.6 2.2-1.3 2.2-1.5 0-.8-.5-.6-2.6 1.1zm-5 3c-1.8 1.4-1.8 1.5.4.4 1.2-.6 2.2-1.3 2.2-1.5 0-.8-.5-.6-2.6 1.1zm-5 3c-1.8 1.4-1.8 1.5.4.4 1.2-.6 2.2-1.3 2.2-1.5 0-.8-.5-.6-2.6 1.1zm-7.6 4c-3.8 2-3.6 2.8.2.9 1.7-.9 3-1.8 3-2 0-.7-.1-.6-3.2 1.1z"
      fill="currentColor"
    />
  </symbol>
  <symbol enable-background="new 0 0 2500 2500" viewBox="0 0 2500 2500" id="gatsby">
    <path
      d="m1250 0c-690.4 0-1250 559.6-1250 1250s559.6 1250 1250 1250 1250-559.6 1250-1250-559.6-1250-1250-1250zm-981.4 1263 968.4 968.4c-531.8-6.9-961.5-436.6-968.4-968.4zm1201.1 943.9-1176.6-1176.6c99.8-436.3 490.3-761.9 956.9-761.9 326.1 0 615.1 159.1 793.6 403.9l-135.9 119.9c-144.8-207.6-385.4-343.5-657.7-343.5-346.7 0-642 220.2-753.6 528.4l1026.5 1026.4c249.3-90.3 441-300.7 505.2-561.3h-425.4v-192.2h629c-.1 466.6-325.7 857.1-762 956.9z"
      fill="#744c9e"
    />
  </symbol>
  <symbol viewBox="0 0 59 88" stroke="none" id="figma">
    <path
      d="M15.0938 87.0215C23.0977 87.0215 29.5938 80.5255 29.5938 72.5215V58.0215H15.0938C7.08975 58.0215 0.59375 64.5175 0.59375 72.5215C0.59375 80.5255 7.08975 87.0215 15.0938 87.0215Z"
      fill="#0ACF83"
    />
    <path
      d="M0.59375 43.5215C0.59375 35.5175 7.08975 29.0215 15.0938 29.0215H29.5938V58.0215H15.0938C7.08975 58.0215 0.59375 51.5255 0.59375 43.5215Z"
      fill="#A259FF"
    />
    <path
      d="M0.59375 14.5215C0.59375 6.51748 7.08975 0.0214844 15.0938 0.0214844H29.5938V29.0215H15.0938C7.08975 29.0215 0.59375 22.5255 0.59375 14.5215Z"
      fill="#F24E1E"
    />
    <path
      d="M29.5938 0.0214844H44.0938C52.0977 0.0214844 58.5938 6.51748 58.5938 14.5215C58.5938 22.5255 52.0977 29.0215 44.0938 29.0215H29.5938V0.0214844Z"
      fill="#FF7262"
    />
    <path
      d="M58.5938 43.5215C58.5938 51.5255 52.0977 58.0215 44.0938 58.0215C36.0897 58.0215 29.5938 51.5255 29.5938 43.5215C29.5938 35.5175 36.0897 29.0215 44.0938 29.0215C52.0977 29.0215 58.5938 35.5175 58.5938 43.5215Z"
      fill="#1ABCFE"
    />
  </symbol>
  <symbol viewBox="0 0 58 58" stroke="none" id="contentful">
    <path
      d="M58 29C58 45.0163 45.0163 58 29 58C12.9837 58 0 45.0163 0 29C0 12.9837 12.9837 0 29 0C45.0163 0 58 12.9837 58 29Z"
      fill="#0033A3"
    />
    <path
      d="M24.2361 35.4713C22.4475 33.7928 21.3744 31.4814 21.3744 28.8398C21.3744 26.1983 22.42 23.8869 24.126 22.2084C25.6119 20.7226 25.6119 18.4112 24.126 16.9253C22.6401 15.4395 20.3288 15.4395 18.8429 16.9253C15.8987 19.9796 14.0001 24.1896 14.0001 28.8398C14.0001 33.4901 15.8987 37.7001 18.953 40.7544C20.4388 42.2402 22.7502 42.2402 24.2361 40.7544C25.5844 39.2685 25.5844 36.9571 24.2361 35.4713Z"
      fill="#FFD85F"
    />
    <path
      d="M24.2361 22.2085C25.9145 20.4199 28.2534 19.3743 30.8675 19.3743C33.4815 19.3743 35.8204 20.4199 37.4989 22.1259C38.9847 23.6118 41.2961 23.6118 42.782 22.1259C44.2678 20.64 44.2678 18.3287 42.782 16.8428C39.7277 13.8986 35.5177 12 30.8675 12C26.2172 12 22.0072 13.8986 18.953 16.9529C17.4671 18.4387 17.4671 20.7501 18.953 22.236C20.4388 23.5568 22.7502 23.5568 24.2361 22.2085Z"
      fill="#3BB4E7"
    />
    <path
      d="M37.4989 35.4712C35.8204 37.2598 33.4815 38.3054 30.8675 38.3054C28.2534 38.3054 25.9145 37.2598 24.2361 35.5538C22.7502 34.0679 20.4388 34.0679 18.953 35.5538C17.4671 37.0397 17.4671 39.351 18.953 40.8369C22.0072 43.7811 26.2172 45.6798 30.8675 45.6798C35.5177 45.6798 39.7277 43.7811 42.782 40.7268C44.2678 39.241 44.2678 36.9296 42.782 35.4437C41.2961 34.1229 38.9847 34.123 37.4989 35.4712Z"
      fill="#ED5C68"
    />
    <path
      d="M21.5945 23.2541C23.6309 23.2541 25.2817 21.6033 25.2817 19.5669C25.2817 17.5305 23.6309 15.8797 21.5945 15.8797C19.5581 15.8797 17.9073 17.5305 17.9073 19.5669C17.9073 21.6033 19.5581 23.2541 21.5945 23.2541Z"
      fill="#308BC5"
    />
    <path
      d="M21.5945 41.8C23.6309 41.8 25.2817 40.1492 25.2817 38.1128C25.2817 36.0765 23.6309 34.4256 21.5945 34.4256C19.5581 34.4256 17.9073 36.0765 17.9073 38.1128C17.9073 40.1492 19.5581 41.8 21.5945 41.8Z"
      fill="#D5465F"
    />
  </symbol>
  <symbol viewBox="0 0 15 15" stroke="none" data-scope="icon" id="panda">
    <path
      d="M10.7608 0.390669C9.38613 -0.0126127 7.98396 -0.067426 6.55506 0.0630881C5.75542 0.147945 4.98667 0.310054 4.24518 0.594509C2.64244 1.20936 1.43903 2.27424 0.72147 3.87754C0.207033 5.02698 0.0211109 6.24802 0.0017347 7.50081C-0.0187424 8.8248 0.143717 10.1305 0.401862 11.4249C0.635852 12.5983 0.947463 13.7487 1.39249 14.8591C1.43477 14.9646 1.48743 15.0002 1.60028 15C3.0078 14.9969 4.41533 14.9969 5.82286 14.9969C6.23955 14.9969 6.65623 14.9969 7.07292 14.9968C7.10483 14.9968 7.13673 14.995 7.17342 14.993C7.19215 14.9919 7.21213 14.9908 7.23399 14.9898C7.22553 14.9693 7.21796 14.9504 7.21087 14.9327C7.19692 14.8979 7.18479 14.8676 7.17125 14.838C7.06947 14.6156 6.96558 14.3942 6.86169 14.1728C6.63635 13.6924 6.41101 13.2121 6.20721 12.7224C5.5891 11.2373 5.11575 9.7082 4.9713 8.08959C4.90756 7.37541 4.91641 6.66531 5.11044 5.96941C5.33222 5.17396 5.80814 4.6124 6.59715 4.37763C7.32168 4.16204 8.05629 4.16346 8.77688 4.40144C9.42 4.61383 9.8393 5.06248 10.0176 5.73423C10.1546 6.25013 10.1546 6.77159 10.051 7.29169C9.97115 7.69214 9.81051 8.05756 9.52137 8.34988C9.00271 8.87423 8.35495 8.9948 7.6599 8.95462C7.53624 8.94747 7.41295 8.93362 7.28592 8.91936C7.22642 8.91267 7.16609 8.9059 7.10452 8.89968C7.10629 8.91977 7.10727 8.93828 7.10819 8.95562C7.10999 8.98973 7.11156 9.01931 7.11843 9.04755C7.14805 9.16913 7.17627 9.29115 7.2045 9.41319C7.27249 9.70715 7.3405 10.0012 7.42793 10.289C7.59961 10.8542 7.79925 11.4058 8.02556 11.9443C9.63883 11.8158 11.1248 11.4062 12.7019 10.4393C12.7256 10.4241 12.7471 10.4103 12.7686 10.3966C13.4461 9.96587 13.9944 9.40712 14.3725 8.68563C14.9848 7.51725 15.1042 6.26777 14.9223 4.97808C14.7345 3.64712 14.1497 2.52993 13.1429 1.6536C12.4446 1.0458 11.6371 0.647746 10.7608 0.390669Z"
      fill="#fde047"
    ></path>
  </symbol>
  <symbol version="1.1" viewBox="0 0 52 64" id="storybook">
    <defs>
      <path
        id="path-1"
        d="M1.94279175,57.1309472 L0.0022554267,5.95476663 C-0.0618328758,4.26461814 1.24754196,2.83223697 2.95307926,2.72673418 L46.9330824,0.00617628491 C48.6691159,-0.10121296 50.1644074,1.2046298 50.2729096,2.92285771 C50.2769973,2.98759391 50.2790429,3.05244063 50.2790429,3.11730315 L50.2790429,58.8828028 C50.2790429,60.6043831 48.8689636,62 47.1295431,62 C47.0824212,62 47.0353056,61.9989534 46.9882313,61.9968606 L4.94876437,60.1280997 C3.31149338,60.0553189 2.00425692,58.751918 1.94279175,57.1309472 Z"
      />
    </defs>
    <g id="icon-storybook-default" fill="none" fill-rule="evenodd" stroke="none" stroke-width="1">
      <g id="icon" transform="translate(1.000000, 1.000000)">
        <path
          id="Combined-Shape"
          fill="#FF4785"
          fill-rule="nonzero"
          d="M50.2729096,2.92285771 C50.2769973,2.98759391 50.2790429,3.05244063 50.2790429,3.11730315 L50.2790429,58.8828028 C50.2790429,60.6043831 48.8689636,62 47.1295431,62 C47.0824212,62 47.0353056,61.9989534 46.9882313,61.9968606 L4.94876437,60.1280997 C3.31149338,60.0553189 2.00425692,58.751918 1.94279175,57.1309472 L0.0022554267,5.95476663 C-0.0618328758,4.26461814 1.24754196,2.83223697 2.95307926,2.72673418 L37.427,0.594 L37.1272753,7.62078766 C37.1238721,7.70179664 37.1419373,7.78178731 37.179031,7.85305525 L37.2223772,7.92113026 C37.3791917,8.12573637 37.6738999,8.16578288 37.880626,8.0105767 L37.880626,8.0105767 L40.6382617,5.94019678 L42.9673936,7.75618537 C43.0546693,7.82423279 43.1634862,7.85946584 43.2745216,7.85562813 C43.5338374,7.84666553 43.7367132,7.6313391 43.7276576,7.37468316 L43.7276576,7.37468316 L43.467,0.22 L46.9330824,0.00617628491 C48.6691159,-0.10121296 50.1644074,1.2046298 50.2729096,2.92285771 Z"
        />
        <mask id="mask-2" fill="#fff"><use xlink:href="#path-1" /></mask>
        <path
          id="S"
          fill="#FFF"
          fill-rule="nonzero"
          d="M29.4029796,23.368648 C29.4029796,24.58142 37.6567008,24.00017 38.7646901,23.1482813 C38.7646901,14.8895929 34.2873503,10.5497821 26.0885852,10.5497821 C17.88982,10.5497821 13.2961856,14.9571143 13.2961856,21.5681161 C13.2961856,33.0822778 28.9959487,33.3026444 28.9959487,39.5830962 C28.9959487,41.3460299 28.1237396,42.3927719 26.2048797,42.3927719 C23.7045471,42.3927719 22.7160434,41.1289316 22.832338,36.8317805 C22.832338,35.8995698 13.2961856,35.6089448 13.0054493,36.8317805 C12.2651161,47.2453073 18.8201763,50.248968 26.3211742,50.248968 C33.5895831,50.248968 39.2880157,46.4144645 39.2880157,39.4729126 C39.2880157,27.132376 23.3556634,27.4629261 23.3556634,21.3477494 C23.3556634,18.8686237 25.2163761,18.5380737 26.3211742,18.5380737 C27.4841196,18.5380737 29.5774214,18.7409467 29.4029796,23.368648 Z"
          mask="url(#mask-2)"
        />
        <path
          id="bookmark"
          fill="#FFF"
          fill-rule="nonzero"
          d="M37.1272753,7.62078766 L37.4276823,0.591583333 L43.4674595,0.218291667 L43.7276576,7.37468316 C43.7367132,7.6313391 43.5338374,7.84666553 43.2745216,7.85562813 C43.1634862,7.85946584 43.0546693,7.82423279 42.9673936,7.75618537 L40.6382617,5.94019678 L37.880626,8.0105767 C37.6738999,8.16578288 37.3791917,8.12573637 37.2223772,7.92113026 C37.1563661,7.83500129 37.1227378,7.72879963 37.1272753,7.62078766 Z"
          mask="url(#mask-2)"
        />
      </g>
    </g>
  </symbol>
  <symbol stroke="none" viewBox="0 0 24 24" role="img" id="contentful-icon">
    <path
      d="M21.875 16.361c-.043-.048-1.067-1.18-2.365-1.19-.68 0-1.288.283-1.815.858-.773.842-2.35 1.85-4.25 1.921-1.598.059-3.085-.548-4.423-1.805-1.644-1.544-2.155-4.016-1.302-6.297.834-2.23 2.752-3.616 5.131-3.707l.044-.004c.024-.003 2.302-.258 4.325 1.548.17.185 1.154 1.197 2.475 1.228.823.018 1.586-.336 2.27-1.055.602-.632.87-1.342.797-2.112-.154-1.61-1.806-2.876-2.03-3.04-.212-.184-1.878-1.578-4.476-2.294-2.52-.695-6.42-.853-10.685 2.349a7.31 7.31 0 0 0-.557.49c-.28.208-.523.462-.716.753a12.469 12.469 0 0 0-3.064 8.677c.207 6.283 5.265 9.293 5.646 9.51.262.17 2.906 1.81 6.495 1.809 2.106 0 4.538-.565 7.005-2.322.248-.138 1.714-1.012 2.103-2.52.23-.894.042-1.815-.562-2.737l-.046-.06zm-16.932 1.97c0-1.09.887-1.977 1.977-1.977s1.977.886 1.977 1.977c0 1.09-.887 1.977-1.977 1.977s-1.977-.887-1.977-1.977zm.139-13.657c.236-.275.451-.498.628-.67a1.965 1.965 0 0 1 1.088-.329c1.09 0 1.977.887 1.977 1.977S7.888 7.63 6.798 7.63s-1.977-.887-1.977-1.977c0-.356.096-.69.261-.978zM13.249.999c3.954 0 6.657 2.336 6.826 2.486l.043.034c.42.3 1.532 1.301 1.63 2.324.044.469-.126.898-.52 1.313-.477.5-.983.752-1.504.738-.964-.019-1.743-.887-1.76-.905l-.042-.044c-2.292-2.063-4.83-1.855-5.13-1.822a6.82 6.82 0 0 0-3.012.818 3 3 0 0 0-2.34-3.214C9.543 1.45 11.516.999 13.248.999zM3.884 6.34a3 3 0 0 0 2.914 2.31c.122 0 .24-.01.358-.024a7.336 7.336 0 0 0-.39.866c-.75 2.003-.59 4.14.359 5.854-.068-.005-.136-.01-.205-.01a2.999 2.999 0 0 0-2.967 2.6 10.075 10.075 0 0 1-1.7-5.288 11.43 11.43 0 0 1 1.63-6.309zM21.497 18.9c-.3 1.174-1.615 1.89-1.627 1.896l-.058.036c-6.287 4.499-12.137.667-12.382.502l-.036-.022a2.848 2.848 0 0 1-.034-.02 2.998 2.998 0 0 0 2.543-3.228c1.124.64 2.336.951 3.58.906 2.214-.083 4.057-1.264 4.962-2.25.327-.356.67-.53 1.048-.53h.005c.762.004 1.46.688 1.593.826.421.658.558 1.291.406 1.884z"
      fill="currentColor"
    />
  </symbol>
  <symbol stroke="none" viewBox="0 0 32 32" id="storybook-icon">
    <path
      d="M21.786 0.318l-0.161 3.615c-0.005 0.203 0.229 0.328 0.391 0.203l1.411-1.068 1.198 0.932c0.156 0.104 0.365 0 0.375-0.188l-0.135-3.677 1.776-0.135c0.922-0.063 1.708 0.672 1.708 1.599v28.802c0 0.917-0.766 1.646-1.682 1.599l-21.469-0.958c-0.833-0.036-1.505-0.708-1.531-1.547l-1-26.401c-0.052-0.885 0.62-1.646 1.505-1.693l17.599-1.109zM17.693 12.401c0 0.625 4.214 0.318 4.786-0.109 0-4.266-2.292-6.521-6.479-6.521-4.198 0-6.531 2.297-6.531 5.724 0 5.932 8 6.036 8 9.276 0 0.938-0.427 1.469-1.401 1.469-1.281 0-1.802-0.651-1.734-2.88 0-0.479-4.865-0.641-5.026 0-0.359 5.375 2.974 6.932 6.797 6.932 3.724 0 6.63-1.984 6.63-5.573 0-6.359-8.135-6.188-8.135-9.333 0-1.292 0.964-1.464 1.505-1.464 0.604 0 1.667 0.094 1.589 2.49z"
      fill="currentColor"
    />
  </symbol>
  <symbol viewBox=".5 -.2 1023 1024.1" stroke="none" id="nextjs-icon">
    <path
      d="m478.5.6c-2.2.2-9.2.9-15.5 1.4-145.3 13.1-281.4 91.5-367.6 212-48 67-78.7 143-90.3 223.5-4.1 28.1-4.6 36.4-4.6 74.5s.5 46.4 4.6 74.5c27.8 192.1 164.5 353.5 349.9 413.3 33.2 10.7 68.2 18 108 22.4 15.5 1.7 82.5 1.7 98 0 68.7-7.6 126.9-24.6 184.3-53.9 8.8-4.5 10.5-5.7 9.3-6.7-.8-.6-38.3-50.9-83.3-111.7l-81.8-110.5-102.5-151.7c-56.4-83.4-102.8-151.6-103.2-151.6-.4-.1-.8 67.3-1 149.6-.3 144.1-.4 149.9-2.2 153.3-2.6 4.9-4.6 6.9-8.8 9.1-3.2 1.6-6 1.9-21.1 1.9h-17.3l-4.6-2.9c-3-1.9-5.2-4.4-6.7-7.3l-2.1-4.5.2-200.5.3-200.6 3.1-3.9c1.6-2.1 5-4.8 7.4-6.1 4.1-2 5.7-2.2 23-2.2 20.4 0 23.8.8 29.1 6.6 1.5 1.6 57 85.2 123.4 185.9s157.2 238.2 201.8 305.7l81 122.7 4.1-2.7c36.3-23.6 74.7-57.2 105.1-92.2 64.7-74.3 106.4-164.9 120.4-261.5 4.1-28.1 4.6-36.4 4.6-74.5s-.5-46.4-4.6-74.5c-27.8-192.1-164.5-353.5-349.9-413.3-32.7-10.6-67.5-17.9-106.5-22.3-9.6-1-75.7-2.1-84-1.3zm209.4 309.4c4.8 2.4 8.7 7 10.1 11.8.8 2.6 1 58.2.8 183.5l-.3 179.8-31.7-48.6-31.8-48.6v-130.7c0-84.5.4-132 1-134.3 1.6-5.6 5.1-10 9.9-12.6 4.1-2.1 5.6-2.3 21.3-2.3 14.8 0 17.4.2 20.7 2z"
      fill="currentColor"
    />
    <path
      d="m784.3 945.1c-3.5 2.2-4.6 3.7-1.5 2 2.2-1.3 5.8-4 5.2-4.1-.3 0-2 1-3.7 2.1zm-6.9 4.5c-1.8 1.4-1.8 1.5.4.4 1.2-.6 2.2-1.3 2.2-1.5 0-.8-.5-.6-2.6 1.1zm-5 3c-1.8 1.4-1.8 1.5.4.4 1.2-.6 2.2-1.3 2.2-1.5 0-.8-.5-.6-2.6 1.1zm-5 3c-1.8 1.4-1.8 1.5.4.4 1.2-.6 2.2-1.3 2.2-1.5 0-.8-.5-.6-2.6 1.1zm-7.6 4c-3.8 2-3.6 2.8.2.9 1.7-.9 3-1.8 3-2 0-.7-.1-.6-3.2 1.1z"
      fill="currentColor"
    />
  </symbol>
  <symbol
    viewBox="0 0 6 6"
    version="1.1"
    xml:space="preserve"
    xmlns:serif="http://www.serif.com/"
    style="fill-rule: evenodd; clip-rule: evenodd; stroke-linejoin: round; stroke-miterlimit: 2"
    id="turbo"
  >
    <g>
      <path
        d="M2.988,1.106c-0.995,0 -1.805,0.81 -1.805,1.804c0,0.995 0.81,1.805 1.805,1.805c0.994,-0 1.804,-0.81 1.804,-1.805c-0,-0.994 -0.81,-1.804 -1.804,-1.804Zm-0,2.738c-0.516,0 -0.934,-0.418 -0.934,-0.934c-0,-0.515 0.418,-0.933 0.934,-0.933c0.515,-0 0.933,0.418 0.933,0.933c0,0.516 -0.418,0.934 -0.933,0.934Z"
        fill="currentColor"
      />
      <path
        d="M3.139,0.81l-0,-0.674c1.464,0.078 2.627,1.291 2.627,2.774c0,1.484 -1.163,2.696 -2.627,2.775l-0,-0.674c1.091,-0.078 1.955,-0.99 1.955,-2.101c0,-1.11 -0.864,-2.022 -1.955,-2.1Zm-1.743,3.478c-0.289,-0.334 -0.476,-0.759 -0.509,-1.226l-0.674,-0c0.035,0.653 0.297,1.246 0.706,1.703l0.477,-0.477l0,0Zm1.44,1.397l0,-0.674c-0.467,-0.033 -0.892,-0.219 -1.226,-0.509l-0.477,0.477c0.457,0.41 1.05,0.671 1.703,0.706l0,-0Z"
        style="fill: url(#turbo-gradient)"
      />
    </g>
  </symbol>
  <symbol viewBox="0 0 78 78" fill="none" id="apollo">
    <path
      d="M39 77.5C60.263 77.5 77.5 60.263 77.5 39C77.5 17.737 60.263 0.5 39 0.5C17.737 0.5 0.5 17.737 0.5 39C0.5 60.263 17.737 77.5 39 77.5Z"
      fill="#ffeadb"
      stroke="#15252d"
    ></path>
    <path
      d="M50.6771 46.4275L49.4452 42.9266L47.8229 38.3168L46.6494 34.9807L45.113 30.6146L43.3283 25.5435H34.6718L33.2901 29.4703L32.0582 32.9712L25.9397 50.3582H31.6489L33.4399 45.2831H42.098L40.5616 40.917H34.9699L36.1435 37.5809L38.5949 30.6146L39.0001 29.4616L39.4053 30.6146L46.3496 50.3543L46.3512 50.3582H52.0604L50.6771 46.4275Z"
      fill="#15252d"
    ></path>
    <path
      d="M61.5744 26.2968C63.7606 30.1732 64.906 34.5496 64.899 39C64.899 53.3034 53.3036 64.8989 39.0002 64.8989C24.6968 64.8989 13.1013 53.3034 13.1013 39C13.1013 24.6966 24.6968 13.1012 39.0002 13.1012C43.6465 13.0938 48.2085 14.3425 52.2034 16.7151"
      stroke="#15252d"
      stroke-width="2.20228"
      stroke-miterlimit="10"
      stroke-linecap="round"
      style="stroke-dashoffset: 0; stroke-dasharray: none"
    ></path>
    <g transform="rotate(0 39 39)">
      <path
        d="M53.7499 21.1C55.6001 21.1 57.0999 19.6002 57.0999 17.75C57.0999 15.8999 55.6001 14.4 53.7499 14.4C51.8997 14.4 50.3999 15.8999 50.3999 17.75C50.3999 19.6002 51.8997 21.1 53.7499 21.1Z"
        fill="#15252d"
        style="opacity: 1; visibility: inherit"
      ></path>
    </g>
  </symbol>
  <symbol
    viewBox="0 0 60 67"
    style="fill-rule: evenodd; clip-rule: evenodd; stroke-linejoin: round; stroke-miterlimit: 2"
    id="builder"
  >
    <g transform="matrix(1,0,0,1,-403,-209)">
      <g>
        <g transform="matrix(1,0,0,1,403.952,208.997)">
          <path
            d="M58.595,18.842C58.598,21.653 57.972,24.428 56.762,26.964C55.552,29.5 53.789,31.733 51.603,33.498L1.328,4.949C1.136,4.839 0.958,4.707 0.797,4.554C0.545,4.307 0.345,4.012 0.208,3.687C0.071,3.361 0,3.011 0,2.658C0,1.953 0.28,1.277 0.778,0.779C1.276,0.28 1.952,0 2.657,0L39.762,0C44.757,0 49.547,1.985 53.079,5.519C56.611,9.052 58.595,13.845 58.595,18.842Z"
            style="fill: rgb(24, 180, 244); fill-rule: nonzero"
          />
        </g>
        <g transform="matrix(1,0,0,1,403.952,208.997)">
          <path
            d="M58.595,48.153C58.596,50.628 58.109,53.079 57.163,55.365C56.217,57.652 54.83,59.73 53.081,61.48C51.332,63.23 49.255,64.618 46.97,65.565C44.685,66.513 42.235,67 39.762,67L2.657,67C2.131,66.994 1.619,66.833 1.185,66.536C0.752,66.239 0.415,65.82 0.22,65.332C0.024,64.844 -0.023,64.309 0.086,63.794C0.194,63.28 0.452,62.809 0.828,62.441C0.978,62.291 1.146,62.16 1.328,62.051L21.114,50.816L51.599,33.502C53.784,35.267 55.547,37.499 56.758,40.034C57.969,42.569 58.596,45.344 58.595,48.153Z"
            style="fill: rgb(253, 107, 60); fill-rule: nonzero"
          />
        </g>
        <g transform="matrix(1,0,0,1,403.952,208.997)">
          <path
            d="M51.603,33.498L21.114,50.816L1.329,62.051C1.139,62.157 0.963,62.286 0.806,62.437C8.35,54.696 12.568,44.309 12.559,33.498C12.573,22.685 8.356,12.296 0.81,4.554C0.971,4.707 1.149,4.839 1.342,4.949L51.603,33.498Z"
            style="fill: rgb(169, 127, 242); fill-rule: nonzero"
          />
        </g>
      </g>
    </g>
  </symbol>
  <symbol fill="none" viewBox="0 0 60 27" id="cloudflare">
    <g clip-path="url(#cloudflare)">
      <path
        fill="#FBAD41"
        d="M47.927 11.725c-.2 0-.397.007-.594.014a.271.271 0 0 0-.094.022.33.33 0 0 0-.214.229l-.846 2.924c-.365 1.257-.23 2.418.383 3.27.563.789 1.498 1.251 2.634 1.305l4.589.276a.41.41 0 0 1 .326.179.44.44 0 0 1 .046.39.58.58 0 0 1-.498.384l-4.768.276c-2.59.118-5.377 2.21-6.355 4.761l-.344.9a.253.253 0 0 0 .225.343H58.84a.435.435 0 0 0 .422-.315 11.69 11.69 0 0 0 .437-3.185c0-6.5-5.266-11.766-11.764-11.766"
      ></path>
      <path
        fill="#F6821F"
        d="m40.76 26.62.304-1.057c.365-1.258.229-2.418-.384-3.271-.562-.788-1.497-1.25-2.633-1.304l-21.527-.276a.426.426 0 0 1-.34-.18.44.44 0 0 1-.047-.39.581.581 0 0 1 .502-.383l21.727-.276c2.58-.118 5.367-2.21 6.345-4.761l1.24-3.24a.814.814 0 0 0 .035-.43C44.572 4.733 38.925 0 32.172 0c-6.223 0-11.503 4.016-13.399 9.598a6.344 6.344 0 0 0-4.467-1.236 6.367 6.367 0 0 0-5.517 7.91C3.913 16.417 0 20.412 0 25.32c0 .445.032.882.097 1.308a.418.418 0 0 0 .415.362H40.268a.517.517 0 0 0 .491-.376"
      ></path>
    </g>
    <defs>
      <clipPath id="cloudflare"><path fill="#FFF" d="M0 0h60v27H0z"></path></clipPath>
    </defs>
  </symbol>
  <symbol
    viewBox="0 0 67 59"
    style="fill-rule: evenodd; clip-rule: evenodd; stroke-linejoin: round; stroke-miterlimit: 2"
    id="eslint"
  >
    <g transform="matrix(1,0,0,1,-155,-162)">
      <g>
        <g transform="matrix(1,0,0,1,155.365,162.18)">
          <path
            d="M46.557,21.11L34.017,13.87C33.703,13.689 33.316,13.689 33.002,13.87L20.462,21.11C20.148,21.291 19.954,21.626 19.954,21.988L19.954,36.468C19.954,36.83 20.148,37.165 20.462,37.347L33.002,44.587C33.316,44.768 33.702,44.768 34.017,44.587L46.557,37.347C46.871,37.166 47.064,36.831 47.064,36.468L47.064,21.988C47.064,21.625 46.871,21.291 46.557,21.109L46.557,21.11Z"
            style="fill: rgb(128, 128, 242); fill-rule: nonzero"
          />
        </g>
        <g transform="matrix(1,0,0,1,155.365,162.18)">
          <path
            d="M0.904,27.705L15.888,1.638C16.432,0.695 17.438,0 18.526,0L48.493,0C49.582,0 50.587,0.695 51.132,1.638L66.115,27.648C66.658,28.599 66.658,29.771 66.115,30.722L51.132,56.576C50.587,57.518 49.582,58 48.493,58L18.526,58C17.438,58 16.432,57.533 15.888,56.59L0.905,30.694C0.361,29.773 0.361,28.625 0.905,27.704L0.904,27.705ZM13.311,40.239C13.311,40.623 13.542,40.977 13.874,41.169L32.96,52.18C33.292,52.372 33.708,52.372 34.04,52.18L53.14,41.169C53.472,40.977 53.704,40.623 53.704,40.239L53.704,18.216C53.704,17.833 53.475,17.478 53.144,17.286L34.057,6.277C33.723,6.086 33.312,6.086 32.978,6.277L13.876,17.287C13.544,17.479 13.31,17.834 13.31,18.217L13.31,40.24L13.311,40.239Z"
            style="fill: rgb(75, 50, 195); fill-rule: nonzero"
          />
        </g>
      </g>
    </g>
  </symbol>
  <symbol viewBox="0 0 76 24" fill="currentcolor" id="radix">
    <path
      d="M43.9022 20.0061H46.4499C46.2647 19.0375 46.17 18.1161 46.17 17.0058V12.3753C46.17 9.25687 44.3893 7.72127 41.1943 7.72127C38.3003 7.72127 36.3324 9.23324 36.0777 11.8083H38.9254C39.0181 10.698 39.8052 9.96561 41.1017 9.96561C42.4446 9.96561 43.3243 10.6743 43.3243 12.1391V12.7061L39.8052 13.1077C37.4206 13.3912 35.5684 14.3834 35.5684 16.7931C35.5684 18.9666 37.2353 20.2659 39.5274 20.2659C41.4027 20.2659 42.9845 19.4863 43.6401 18.1161C43.6689 18.937 43.9022 20.0061 43.9022 20.0061ZM40.3377 18.1634C39.157 18.1634 38.5087 17.5727 38.5087 16.6278C38.5087 15.3757 39.4579 15.0922 40.7082 14.9268L43.3243 14.6197V15.352C43.3243 17.242 41.8658 18.1634 40.3377 18.1634ZM56.2588 20.0061H59.176V3H56.2125V9.96561C55.6569 8.76075 54.3141 7.72127 52.4851 7.72127C49.3058 7.72127 47.099 10.2963 47.099 14.0054C47.099 17.7381 49.3058 20.2896 52.4851 20.2896C54.2678 20.2896 55.68 19.2973 56.2588 18.0925V20.0061ZM56.282 14.218C56.282 16.5569 55.1938 18.0689 53.3185 18.0689C51.3969 18.0689 50.1856 16.486 50.1856 14.0054C50.1856 11.5485 51.3969 9.94198 53.3185 9.94198C55.1938 9.94198 56.282 11.454 56.282 13.7928V14.218ZM60.9066 5.97304H64.0553V3.01996H60.9066V5.97304ZM60.9992 20.0061H63.9627V8.00476H60.9992V20.0061ZM67.6638 20.0061L70.6041 15.8954L73.5212 20.0061H76.9246L72.3636 13.7219L76.5542 8.00476H73.3823L70.7661 11.7138L68.1731 8.00476H64.7697L69.0066 13.8637L64.4919 20.0061H67.6638Z"
    ></path>
    <path
      fill-rule="evenodd"
      clip-rule="evenodd"
      d="M24.9132 20V14.0168H28.7986L32.4513 20H35.7006L31.6894 13.5686C33.5045 12.986 35.0955 11.507 35.0955 9.01961C35.0955 5.7479 32.7994 4 28.9571 4H22V20H24.9132ZM24.9132 6.35294V11.6863H28.821C31.0395 11.6863 32.1599 10.7675 32.1599 9.01961C32.1599 7.27171 30.9395 6.35294 28.621 6.35294H24.9132Z"
    ></path>
    <path d="M7 23C3.13401 23 0 19.6422 0 15.5C0 11.3578 3.13401 8 7 8V23Z"></path>
    <path d="M7 0H0V7H7V0Z"></path>
    <path
      d="M11.5 7C13.433 7 15 5.433 15 3.5C15 1.567 13.433 0 11.5 0C9.56704 0 8 1.567 8 3.5C8 5.433 9.56704 7 11.5 7Z"
    ></path>
  </symbol>
  <symbol viewBox="-11.5 -10.23174 23 20.46348" id="react">
    <title>React Logo</title>
    <circle cx="0" cy="0" r="2.05" fill="#61dafb" />
    <g stroke="#61dafb" stroke-width="1" fill="none">
      <ellipse rx="11" ry="4.2" />
      <ellipse rx="11" ry="4.2" transform="rotate(60)" />
      <ellipse rx="11" ry="4.2" transform="rotate(120)" />
    </g>
  </symbol>
  <symbol
    viewBox="0 0 64 82"
    style="fill-rule: evenodd; clip-rule: evenodd; stroke-linejoin: round; stroke-miterlimit: 2"
    id="sanity"
  >
    <g transform="matrix(1,0,0,1,-126,-660)">
      <g>
        <g transform="matrix(1,0,0,1,93.9912,637.405)">
          <path
            d="M39.423,33.163C39.423,44.161 46.336,50.706 60.177,54.156L74.843,57.497C87.942,60.453 95.918,67.795 95.918,79.755C96.02,84.966 94.296,90.053 91.034,94.163C91.034,82.23 84.751,75.782 69.595,71.905L55.195,68.688C43.663,66.104 34.763,60.068 34.763,47.076C34.702,42.059 36.342,37.164 39.423,33.163"
            style="fill: rgb(240, 62, 47); fill-rule: nonzero"
          />
        </g>
        <g transform="matrix(1,0,0,1,93.9912,637.405)">
          <path
            d="M82.022,76.827C88.278,80.759 91.021,86.258 91.021,94.15C85.843,100.666 76.746,104.323 66.055,104.323C48.058,104.323 35.463,95.621 32.664,80.498L49.947,80.498C52.172,87.441 58.064,90.658 65.929,90.658C75.529,90.658 81.91,85.626 82.036,76.8"
            style="fill: rgb(246, 139, 130); fill-rule: nonzero"
          />
        </g>
        <g transform="matrix(1,0,0,1,93.9912,637.405)">
          <path
            d="M48.407,49.468C45.551,47.8 43.207,45.404 41.626,42.533C40.044,39.662 39.283,36.424 39.423,33.163C44.419,26.701 53.109,22.756 63.703,22.756C82.036,22.756 92.644,32.269 95.261,45.66L78.635,45.66C76.802,40.381 72.212,36.27 63.843,36.27C54.901,36.27 48.799,41.384 48.449,49.468"
            style="fill: rgb(246, 139, 130); fill-rule: nonzero"
          />
        </g>
      </g>
    </g>
  </symbol>
  <symbol viewBox="0 0 109.5 124.5" id="shopify">
    <g>
      <path
        d="M95.9,23.9c-0.1-0.6-0.6-1-1.1-1c-0.5,0-9.3-0.2-9.3-0.2s-7.4-7.2-8.1-7.9c-0.7-0.7-2.2-0.5-2.7-0.3
		c0,0-1.4,0.4-3.7,1.1c-0.4-1.3-1-2.8-1.8-4.4c-2.6-5-6.5-7.7-11.1-7.7c0,0,0,0,0,0c-0.3,0-0.6,0-1,0.1c-0.1-0.2-0.3-0.3-0.4-0.5
		c-2-2.2-4.6-3.2-7.7-3.1c-6,0.2-12,4.5-16.8,12.2c-3.4,5.4-6,12.2-6.8,17.5c-6.9,2.1-11.7,3.6-11.8,3.7c-3.5,1.1-3.6,1.2-4,4.5
		c-0.3,2.5-9.5,73-9.5,73l76.4,13.2l33.1-8.2C109.5,115.8,96,24.5,95.9,23.9z M67.2,16.8c-1.8,0.5-3.8,1.2-5.9,1.8
		c0-3-0.4-7.3-1.8-10.9C64,8.6,66.2,13.7,67.2,16.8z M57.2,19.9c-4,1.2-8.4,2.6-12.8,3.9c1.2-4.7,3.6-9.4,6.4-12.5
		c1.1-1.1,2.6-2.4,4.3-3.2C56.9,11.6,57.3,16.5,57.2,19.9z M49.1,4c1.4,0,2.6,0.3,3.6,0.9C51.1,5.8,49.5,7,48,8.6
		c-3.8,4.1-6.7,10.5-7.9,16.6c-3.6,1.1-7.2,2.2-10.5,3.2C31.7,18.8,39.8,4.3,49.1,4z"
        fill="#95BF47"
      />
      <g>
        <path
          d="M94.8,22.9c-0.5,0-9.3-0.2-9.3-0.2s-7.4-7.2-8.1-7.9c-0.3-0.3-0.6-0.4-1-0.5l0,109.7l33.1-8.2
			c0,0-13.5-91.3-13.6-92C95.8,23.3,95.3,22.9,94.8,22.9z"
          fill="#5E8E3E"
        />
        <path
          d="M58,39.9l-3.8,14.4c0,0-4.3-2-9.4-1.6c-7.5,0.5-7.5,5.2-7.5,6.4c0.4,6.4,17.3,7.8,18.3,22.9
			c0.7,11.9-6.3,20-16.4,20.6c-12.2,0.8-18.9-6.4-18.9-6.4l2.6-11c0,0,6.7,5.1,12.1,4.7c3.5-0.2,4.8-3.1,4.7-5.1
			c-0.5-8.4-14.3-7.9-15.2-21.7c-0.7-11.6,6.9-23.4,23.7-24.4C54.7,38.2,58,39.9,58,39.9z"
          fill="#FFFFFF"
        />
      </g>
    </g>
  </symbol>
  <symbol viewBox="0 0 109 113" fill="none" id="supabase">
    <path
      d="M63.7076 110.284C60.8481 113.885 55.0502 111.912 54.9813 107.314L53.9738 40.0627L99.1935 40.0627C107.384 40.0627 111.952 49.5228 106.859 55.9374L63.7076 110.284Z"
      fill="url(#supabase-1)"
    />
    <path
      d="M63.7076 110.284C60.8481 113.885 55.0502 111.912 54.9813 107.314L53.9738 40.0627L99.1935 40.0627C107.384 40.0627 111.952 49.5228 106.859 55.9374L63.7076 110.284Z"
      fill="url(#supabase-2)"
      fill-opacity="0.2"
    />
    <path
      d="M45.317 2.07103C48.1765 -1.53037 53.9745 0.442937 54.0434 5.041L54.4849 72.2922H9.83113C1.64038 72.2922 -2.92775 62.8321 2.1655 56.4175L45.317 2.07103Z"
      fill="#3ECF8E"
    />
  </symbol>
  <symbol viewBox="0 0 76 65" fill="none" id="vercel">
    <path d="M37.5274 0L75.0548 65H0L37.5274 0Z" fill="currentColor" />
  </symbol>
  <symbol viewBox="0 0 165 165" fill="none" id="vitest">
    <path
      d="M120.831 57.2543L84.693 109.505C84.3099 110.059 83.7558 110.474 83.1148 110.687C82.4738 110.9 81.7809 110.898 81.1412 110.684C80.5015 110.469 79.95 110.052 79.5702 109.497C79.1905 108.941 79.0032 108.277 79.037 107.606L80.4833 78.7582L57.1343 73.8064C56.6353 73.7007 56.1704 73.474 55.7807 73.1465C55.391 72.8191 55.0885 72.4009 54.9001 71.929C54.7117 71.4571 54.6432 70.9461 54.7006 70.4412C54.758 69.9364 54.9395 69.4532 55.2291 69.0345L91.3675 16.7837C91.7507 16.2294 92.3048 15.8145 92.9458 15.6018C93.5869 15.3891 94.2798 15.3902 94.9196 15.6051C95.5593 15.8199 96.1109 16.2367 96.4906 16.7923C96.8703 17.3478 97.0575 18.0117 97.0236 18.6833L95.5773 47.5314L118.926 52.4828C119.425 52.5885 119.89 52.8152 120.28 53.1426C120.67 53.4701 120.972 53.8883 121.16 54.3602C121.349 54.8321 121.417 55.3431 121.36 55.8479C121.303 56.3528 121.121 56.836 120.831 57.2547L120.831 57.2543Z"
      fill="#FCC72B"
    />
    <path
      d="M82.9866 153.343C82.0254 153.344 81.0735 153.156 80.1855 152.788C79.2975 152.42 78.4909 151.88 77.8122 151.2L43.6658 117.056C42.2998 115.683 41.5341 113.824 41.5366 111.887C41.5392 109.95 42.3098 108.092 43.6796 106.723C45.0493 105.353 46.9064 104.582 48.8435 104.579C50.7807 104.577 52.6399 105.342 54.0134 106.708L82.9866 135.678L146.105 72.5626C147.481 71.2088 149.336 70.4536 151.266 70.4615C153.197 70.4693 155.046 71.2396 156.41 72.6045C157.775 73.9695 158.546 75.8184 158.554 77.7487C158.561 79.679 157.806 81.5342 156.452 82.9101L88.1597 151.2C87.4811 151.881 86.6747 152.42 85.7869 152.788C84.8992 153.156 83.9475 153.344 82.9866 153.343Z"
      fill="#729B1B"
    />
    <path
      d="M82.9572 153.343C83.9184 153.344 84.8703 153.156 85.7583 152.788C86.6463 152.42 87.4528 151.88 88.1316 151.2L122.278 117.056C123.644 115.683 124.41 113.824 124.407 111.887C124.405 109.95 123.634 108.092 122.264 106.723C120.894 105.353 119.037 104.582 117.1 104.579C115.163 104.577 113.304 105.342 111.93 106.708L82.9572 135.678L19.8389 72.5626C18.4629 71.2088 16.6077 70.4536 14.6775 70.4615C12.7472 70.4693 10.8982 71.2396 9.53331 72.6045C8.16839 73.9695 7.39811 75.8184 7.39025 77.7487C7.38239 79.679 8.13759 81.5342 9.49135 82.9101L77.784 151.2C78.4627 151.881 79.2691 152.42 80.1568 152.788C81.0446 153.156 81.9963 153.344 82.9572 153.343Z"
      fill="#729B1B"
      fill-opacity="0.5"
    />
  </symbol>
  <symbol viewBox="0 0 128 113" fill="none" id="netlify">
    <g clip-path="url(#netlify-clip)">
      <path
        d="M34.593 94.0509H33.3844L27.3514 88.0179V86.8094L36.5743 77.5866H42.9639L43.8158 78.4385V84.8281L34.593 94.0509Z"
        fill="#05BDBA"
      />
      <path
        d="M27.3514 25.816V24.6074L33.3844 18.5744H34.593L43.8158 27.7972V34.1868L42.9639 35.0388H36.5743L27.3514 25.816Z"
        fill="#05BDBA"
      />
      <path
        d="M35.8412 61.4491H0.73307L0 60.716V51.9192L0.73307 51.1861H35.8412L36.5743 51.9192V60.716L35.8412 61.4491Z"
        fill="#05BDBA"
      />
      <path
        d="M127.277 61.4491H92.1687L91.4356 60.716V51.9192L92.1687 51.1861H127.277L128.01 51.9192V60.716L127.277 61.4491Z"
        fill="#05BDBA"
      />
      <path
        d="M58.9428 27.0642V0.73307L59.6759 0H68.4727L69.2058 0.73307V27.0642L68.4727 27.7972H59.6759L58.9428 27.0642Z"
        fill="#05BDBA"
      />
      <path
        d="M58.9428 111.902V85.5711L59.6759 84.838H68.4727L69.2058 85.5711V111.902L68.4727 112.635H59.6759L58.9428 111.902Z"
        fill="#05BDBA"
      />
      <path
        d="M80.4594 74.6047H71.6824L70.9493 73.8717V53.3259C70.9493 49.6705 69.5129 46.8372 65.1046 46.7382C62.836 46.6787 60.2405 46.7382 57.4668 46.8471L57.0507 47.2731V73.8618L56.3176 74.5948H47.5406L46.8075 73.8618V38.7636L47.5406 38.0305H67.2939C74.9713 38.0305 81.1925 44.2517 81.1925 51.9291V73.8717L80.4594 74.6047Z"
        fill="#014847"
      />
    </g>
    <defs>
      <clipPath id="netlify-clip">
        <rect width="128" height="112.635" fill="white"></rect>
      </clipPath>
    </defs>
  </symbol>
</svg>
